<?xml version="1.0" encoding="utf-8"?>
<!-- Generator: Adobe Illustrator 16.0.0, SVG Export Plug-In . SVG Version: 6.00 Build 0)  -->
<!DOCTYPE svg PUBLIC "-//W3C//DTD SVG 1.1//EN" "http://www.w3.org/Graphics/SVG/1.1/DTD/svg11.dtd">
<svg version="1.1" id="レイヤー_1" xmlns="http://www.w3.org/2000/svg" xmlns:xlink="http://www.w3.org/1999/xlink" x="0px"
	 y="0px" width="324px" height="53px" viewBox="151.14 467.445 324 53" enable-background="new 151.14 467.445 324 53"
	 xml:space="preserve">
<g display="none">
	<path display="inline" fill="#FFFFFF" d="M267.927,381.656c0,1.95-0.05,3.899-0.325,5.798c0.7,0.875,2.5,3.476,2.924,4.124
		l-1.149,1.176c-0.425-0.801-1.325-2.274-2.1-3.449c-0.524,2.475-1.524,4.799-3.273,6.874c-0.25-0.352-0.775-0.875-1.125-1.101
		c3.199-3.85,3.549-8.697,3.549-13.422v-8.748l2,0.125c-0.025,0.15-0.175,0.275-0.5,0.325V381.656L267.927,381.656z
		 M262.903,384.181c0.95-1.351,1.375-3.824,1.425-6.1l1.175,0.176c-0.05,2.398-0.425,5.072-1.524,6.623L262.903,384.181z
		 M271.426,377.407c-0.05,0.15-0.225,0.226-0.5,0.226c-0.45,1.475-1.3,3.724-1.975,5.099l-0.976-0.45
		c0.625-1.45,1.399-3.849,1.799-5.499L271.426,377.407z M273.825,390.528c-0.601,2.05-1.525,4.274-3.175,5.624l-1.25-0.85
		c1.55-1.2,2.574-3.299,3.1-5.225L273.825,390.528z M286.122,379.832h-3.524c0.601,3.649,1.824,7.049,3.849,8.599
		c-0.35,0.3-0.875,0.85-1.1,1.249c-1.6-1.374-2.674-3.725-3.374-6.475c-0.6,2.325-1.875,4.551-4.523,6.425
		c-0.226-0.325-0.7-0.851-1.051-1.074c3.524-2.5,4.399-5.649,4.574-8.724h-2.824v-0.199c-1.175,4.849-3.374,8.197-6.223,10.047
		c-0.2-0.375-0.6-0.874-0.95-1.175c1.425-0.851,2.7-2.199,3.749-3.975c-0.625-0.625-1.648-1.398-2.523-1.925l0.75-0.899
		c0.8,0.45,1.75,1.125,2.375,1.676c0.324-0.676,0.625-1.375,0.875-2.125c-0.65-0.525-1.676-1.149-2.524-1.574l0.625-1.025
		c0.775,0.351,1.65,0.825,2.3,1.3c0.25-0.925,0.476-1.899,0.625-2.924h-2.874c-0.8,2.424-1.899,4.624-3.199,6.173
		c-0.25-0.273-0.774-0.698-1.1-0.924c1.8-2.049,3.174-5.673,3.924-9.423l1.851,0.425c-0.051,0.2-0.226,0.3-0.525,0.3
		c-0.15,0.7-0.325,1.399-0.525,2.074h2.999l0.275-0.05l0.875,0.275c-0.025,0.149-0.1,0.225-0.15,0.3c-0.1,0.75-0.225,1.5-0.35,2.2
		h2.6v-5.449l1.925,0.125c-0.025,0.175-0.15,0.3-0.476,0.325v4.999h3.649v1.448H286.122z M275.8,395.777
		c0.025-1.3-0.225-3.324-0.575-4.897l1.375-0.2c0.425,1.55,0.675,3.574,0.675,4.874L275.8,395.777z M280.273,395.827
		c-0.2-1.35-0.899-3.374-1.648-4.924l1.325-0.398c0.8,1.523,1.523,3.573,1.773,4.897L280.273,395.827z M285.047,396.178
		c-0.5-1.476-1.774-3.851-2.975-5.6l1.325-0.524c1.25,1.725,2.549,4.049,3.074,5.522L285.047,396.178z M284.272,373.509
		c0.75,1.175,1.5,2.698,1.8,3.698l-1.225,0.525c-0.275-1.05-1-2.6-1.699-3.773L284.272,373.509z"/>
	<path display="inline" fill="#FFFFFF" d="M293.376,381.606c0,1.95-0.05,3.899-0.325,5.798c0.85,0.925,3.1,3.574,3.625,4.249
		l-1.15,1.226c-0.524-0.851-1.824-2.524-2.823-3.725c-0.575,2.524-1.676,4.924-3.675,7.023c-0.25-0.352-0.774-0.9-1.148-1.125
		c3.574-3.799,3.974-8.698,3.974-13.447v-8.698c1.175,0.101,1.601,0.101,2,0.125c-0.024,0.175-0.149,0.3-0.475,0.325v8.249H293.376z
		 M287.903,384.205c1.025-1.323,1.476-3.799,1.524-6.123l1.225,0.176c-0.05,2.398-0.475,5.022-1.625,6.548L287.903,384.205z
		 M297.351,377.957c-0.075,0.125-0.25,0.2-0.5,0.2c-0.5,1.4-1.375,3.499-2.075,4.85c-0.024-0.025-1.049-0.551-1.049-0.551
		c0.649-1.375,1.5-3.674,1.924-5.249L297.351,377.957z M306.248,393.778c0,0.574,0.101,0.675,0.774,0.675h2.149
		c0.6,0,0.725-0.351,0.8-2.85c0.325,0.25,0.975,0.5,1.399,0.625c-0.149,2.924-0.574,3.649-2.024,3.649h-2.524
		c-1.773,0-2.175-0.45-2.175-2.125v-5.773h-2.624c-0.023,0.149-0.2,0.25-0.475,0.274c-0.351,3.925-1.25,6.522-5.624,7.924
		c-0.15-0.375-0.575-0.95-0.925-1.226c3.849-1.175,4.724-3.3,4.974-6.974H296.2v-1.475h3.074v-3.301H296.2v-1.499h3.074v-3.125
		l2.024,0.15c-0.025,0.15-0.15,0.275-0.475,0.325v2.648h5.647v-3.125l2.049,0.15c-0.023,0.15-0.148,0.275-0.475,0.325v2.648h3.1
		v1.499h-3.1v3.3h3.148v1.476h-4.474c-0.05,0.148-0.175,0.25-0.476,0.273v5.528H306.248z M302.824,380.106v-3.049h-5.649v-1.45
		h5.649v-2.699l2.1,0.125c-0.025,0.175-0.15,0.3-0.5,0.351v2.225h5.799v1.45h-5.799v3.049L302.824,380.106L302.824,380.106z
		 M300.825,383.205v3.301h5.647v-3.301H300.825z"/>
	<path display="inline" fill="#FFFFFF" d="M332.848,393.604c-2.199,0.399-5.124,0.574-7.673,0.574c-2.05,0-3.849-0.125-4.823-0.325
		c-3.023-0.675-4.324-2.574-4.324-4.773c0-1.874,1.051-3.823,2.55-5.322l1.449,0.749c-1.398,1.425-2.198,3.05-2.198,4.424
		c0,1.476,0.975,2.773,3.124,3.273c0.85,0.176,2.299,0.275,3.999,0.275c2.424,0,5.372-0.2,7.771-0.675L332.848,393.604z
		 M321.626,381.007c1.299-1.024,3.074-2.225,4.424-2.899v-0.025c-1.899,0.226-6.248,0.301-9.022,0.301c0-0.476,0-1.301-0.024-1.75
		h1.35c3.199,0,9.747-0.051,12.896-0.801l0.2,1.824c-0.825,0.125-1.426,0.25-2.624,0.75c-1.4,0.575-3.824,1.924-5.774,3.499
		L321.626,381.007z M332.823,384.556c-0.726-1.102-2.273-2.601-3.35-3.399l0.825-0.774c1.199,0.875,2.648,2.324,3.424,3.375
		L332.823,384.556z M335.447,382.181c-0.699-1-2.175-2.499-3.35-3.374l0.825-0.8c1.225,0.925,2.675,2.35,3.424,3.398
		L335.447,382.181z"/>
	<path display="inline" fill="#FFFFFF" d="M358.822,380.132c-0.073,0.274-0.35,0.449-0.725,0.449c-0.274,1.726-0.675,3.55-1.1,5.1
		c1.35,0.575,2.773,1.225,4.198,1.95l-0.8,1.674c-1.35-0.675-2.648-1.324-3.924-1.874c-1.2,3.599-2.925,6.224-5.574,7.973
		c-0.35-0.35-0.975-0.773-1.425-1.05c2.625-1.725,4.249-4.073,5.399-7.646c-2.524-1-4.824-1.7-6.675-1.851
		c-1.725,6.298-3.273,7.947-6.272,7.947s-3.574-2.398-3.574-3.924c0-3.874,4.024-5.675,8.498-5.698c0.524-2,1-4.449,1.35-7.048
		c-1.175,0.1-5.174,0.375-7.072,0.5c-0.101,0.175-0.3,0.3-0.524,0.35l-0.226-2.023c2.148-0.075,6.799-0.375,8.298-0.525
		c0.274-0.025,0.375-0.15,0.55-0.275l1.55,0.926c-0.125,0.199-0.325,0.3-0.625,0.399c-0.398,2.774-0.999,5.648-1.549,7.798
		c1.924,0.15,4.224,0.825,6.723,1.774c0.426-1.499,0.801-3.424,1.075-5.448L358.822,380.132z M346.45,384.756
		c-3.6,0.05-6.474,1.475-6.474,4.124c0,1.399,0.675,2.35,1.851,2.35C343.651,391.229,344.851,390.604,346.45,384.756z"/>
</g>
<g display="none">
	<path display="inline" fill="#FFFFFF" d="M263.178,421.206c1.825-0.475,4.474-1.25,7.123-1.999l0.2,1.351
		c-2.299,0.75-4.699,1.523-6.225,1.975c-0.024,0.2-0.149,0.325-0.3,0.399L263.178,421.206z M272.65,434.354
		c-0.1,0.125-0.3,0.199-0.55,0.149c-2,1-5.049,2.05-7.522,2.675c-0.301-0.325-0.825-0.925-1.149-1.226
		c2.449-0.524,5.574-1.475,7.423-2.5L272.65,434.354z M265.227,414.509c1.775,0.475,4.1,1.325,5.324,1.975l-0.75,1.325
		c-1.2-0.675-3.524-1.6-5.324-2.149L265.227,414.509z M266.577,433.104v-10.247h16.421v10.247H266.577z M268.202,424.056v1.824
		h13.122v-1.824H268.202z M268.202,427.03v1.851h13.122v-1.851H268.202z M268.202,430.029v1.899h13.122v-1.899H268.202z
		 M278.874,417.107c0.6,2.049,2.049,3.949,7.272,4.749c-0.325,0.326-0.725,0.95-0.899,1.375c-4.399-0.775-6.248-2.5-7.173-4.399
		c-0.9,1.899-2.7,3.175-6.574,3.949c-0.125-0.35-0.5-0.925-0.775-1.2c4.174-0.75,5.749-2.073,6.35-4.474H274.2
		c-0.625,0.775-1.4,1.524-2.301,2.224c-0.3-0.324-0.875-0.675-1.273-0.85c1.924-1.325,3.199-3.074,3.874-4.599l1.875,0.274
		c-0.025,0.175-0.175,0.275-0.476,0.3c-0.199,0.426-0.449,0.875-0.75,1.325h9.099l0.3-0.024l1,0.125
		c-0.325,0.949-1.75,2.948-2.625,3.773l-1.351-0.5c0.551-0.524,1.125-1.3,1.625-2.049H278.874L278.874,417.107z M284.073,437.178
		c-1.625-0.825-4.373-1.875-7.197-2.774l1.375-0.875c2.773,0.851,5.824,1.925,7.673,2.749L284.073,437.178z"/>
	<path display="inline" fill="#FFFFFF" d="M288.902,420.957c1.551,0.65,3.425,1.75,4.35,2.6l-1,1.35
		c-0.875-0.875-2.725-1.999-4.274-2.724L288.902,420.957z M288.527,435.803c1.15-1.976,2.774-5.35,3.925-8.198l1.35,0.95
		c-1.075,2.648-2.524,5.772-3.574,7.698c0.101,0.148,0.15,0.273,0.15,0.375c0,0.1-0.025,0.175-0.075,0.25L288.527,435.803z
		 M293.426,418.282c-0.875-0.899-2.699-2.149-4.224-2.924l0.975-1.2c1.524,0.726,3.374,1.875,4.274,2.799L293.426,418.282z
		 M309.723,428.279h-4.749v7.023c0,1.725-0.699,1.85-4.249,1.8c-0.075-0.425-0.3-1.024-0.5-1.45
		c1.275,0.025,2.399,0.025,2.726,0.025c0.324-0.025,0.425-0.125,0.425-0.399v-6.999h-4.35v-8.623h3.85c0.25-0.899,0.5-2.1,0.649-3
		H297.4v5.424c0,4.399-0.399,10.674-3.398,14.922c-0.3-0.301-1.025-0.726-1.4-0.899c2.899-4.099,3.174-9.848,3.174-14.021v-6.973
		h15.347v1.549h-6.373l0.975,0.25c-0.075,0.175-0.25,0.25-0.55,0.275c-0.15,0.675-0.425,1.649-0.7,2.475h5.249L309.723,428.279
		L309.723,428.279z M301.725,430.304c-0.075,0.176-0.274,0.25-0.523,0.226c-0.926,1.851-2.375,3.898-3.75,5.198
		c-0.301-0.274-0.851-0.699-1.2-0.925c1.35-1.175,2.75-3.174,3.599-5.1L301.725,430.304z M300.55,421.007v2.274h7.573v-2.274H300.55
		z M300.55,424.605v2.3h7.573v-2.3H300.55z M309.973,435.578c-0.575-1.425-2.023-3.648-3.324-5.273l1.375-0.675
		c1.324,1.574,2.824,3.725,3.449,5.148L309.973,435.578z"/>
	<path display="inline" fill="#FFFFFF" d="M332.848,434.604c-2.199,0.399-5.124,0.574-7.673,0.574c-2.05,0-3.849-0.125-4.823-0.325
		c-3.023-0.675-4.324-2.574-4.324-4.773c0-1.874,1.051-3.823,2.55-5.322l1.449,0.749c-1.398,1.425-2.198,3.05-2.198,4.424
		c0,1.476,0.975,2.773,3.124,3.273c0.85,0.176,2.299,0.275,3.999,0.275c2.424,0,5.372-0.2,7.771-0.675L332.848,434.604z
		 M321.626,422.007c1.299-1.024,3.074-2.225,4.424-2.899v-0.025c-1.899,0.226-6.248,0.301-9.022,0.301c0-0.476,0-1.301-0.024-1.75
		h1.35c3.199,0,9.747-0.051,12.896-0.801l0.2,1.824c-0.825,0.125-1.426,0.25-2.624,0.75c-1.4,0.575-3.824,1.924-5.774,3.5
		L321.626,422.007z M332.823,425.556c-0.726-1.102-2.273-2.601-3.35-3.399l0.825-0.774c1.199,0.875,2.648,2.324,3.424,3.375
		L332.823,425.556z M335.447,423.181c-0.699-0.999-2.175-2.499-3.35-3.374l0.825-0.8c1.225,0.925,2.675,2.35,3.424,3.398
		L335.447,423.181z"/>
	<path display="inline" fill="#FFFFFF" d="M358.822,421.132c-0.073,0.274-0.35,0.449-0.725,0.449c-0.274,1.726-0.675,3.55-1.1,5.1
		c1.35,0.575,2.773,1.225,4.198,1.95l-0.8,1.674c-1.35-0.675-2.648-1.324-3.924-1.874c-1.2,3.599-2.925,6.224-5.574,7.973
		c-0.35-0.35-0.975-0.773-1.425-1.05c2.625-1.725,4.249-4.073,5.399-7.646c-2.524-1-4.824-1.7-6.675-1.851
		c-1.725,6.298-3.273,7.947-6.272,7.947s-3.574-2.398-3.574-3.924c0-3.874,4.024-5.675,8.498-5.698c0.524-1.999,1-4.449,1.35-7.048
		c-1.175,0.1-5.174,0.375-7.072,0.5c-0.101,0.175-0.3,0.3-0.524,0.35l-0.226-2.023c2.148-0.075,6.799-0.375,8.298-0.525
		c0.274-0.025,0.375-0.15,0.55-0.275l1.55,0.926c-0.125,0.199-0.325,0.3-0.625,0.399c-0.398,2.774-0.999,5.648-1.549,7.798
		c1.924,0.15,4.224,0.825,6.723,1.774c0.426-1.499,0.801-3.424,1.075-5.448L358.822,421.132z M346.45,425.756
		c-3.6,0.05-6.474,1.475-6.474,4.124c0,1.399,0.675,2.35,1.851,2.35C343.651,432.229,344.851,431.604,346.45,425.756z"/>
</g>
<g display="none">
	<path display="inline" fill="#FFFFFF" d="M260.797,464.981h-9.773c1.625,5.973,4.85,10.572,10.173,12.546
		c-0.425,0.375-0.975,1.075-1.25,1.575c-5.224-2.149-8.397-6.573-10.248-12.597c-1.148,4.947-3.873,9.848-10.321,12.621
		c-0.25-0.449-0.775-1.05-1.2-1.425c6.598-2.675,9.073-7.674,10.021-12.722h-9.646v-1.725h9.922c0.325-2.601,0.3-5.149,0.325-7.323
		l2.349,0.125c-0.024,0.225-0.225,0.35-0.55,0.425c-0.025,1.975-0.05,4.323-0.35,6.773h10.548L260.797,464.981L260.797,464.981z"/>
	<path display="inline" fill="#FFFFFF" d="M271.076,463.807h-3.475c-0.3,2.099-1.225,4.299-3.574,5.897
		c-0.225-0.351-0.8-0.925-1.148-1.175c2.023-1.35,2.849-3.049,3.148-4.724h-2.773v-1.524h2.924v-3.823h-2.349v-1.5h11.196v1.5h-2.35
		v3.823h2.725v1.524h-2.725v5.522h-1.6V463.807z M275.425,476.754h10.697v1.6h-22.994v-1.6H273.7v-3.499h-7.898v-1.551h7.898v-3.198
		l2.198,0.149c-0.024,0.175-0.149,0.3-0.475,0.351v2.698h7.998v1.551h-7.998L275.425,476.754L275.425,476.754z M267.727,458.459
		v3.823h3.35v-3.823H267.727z M279.099,457.308c-0.024,0.176-0.149,0.275-0.5,0.325v8.223h-1.575v-8.697L279.099,457.308z
		 M285.322,456.108c-0.024,0.175-0.149,0.3-0.475,0.351v11.172c0,1.8-1.024,1.898-4.449,1.898c-0.075-0.449-0.325-1.074-0.55-1.499
		c0.575,0.024,1.125,0.024,1.575,0.024c1.799,0,1.799-0.024,1.799-0.425v-11.646L285.322,456.108z"/>
	<path display="inline" fill="#FFFFFF" d="M297.275,466.28c-0.1,0.125-0.3,0.15-0.475,0.125c-0.4,0.7-1.1,1.726-1.725,2.5
		c0.648,0.8,1.25,1.574,1.5,1.874l-1.025,1.175c-0.45-0.773-1.5-2.273-2.375-3.448v10.622h-1.524v-9.599
		c-0.975,1.25-2,2.351-3,3.226c-0.149-0.399-0.6-1.125-0.898-1.399c2.499-2.024,5.099-5.549,6.522-9.098h-5.924v-1.524h3.199v-4.699
		l2.024,0.125c-0.025,0.176-0.15,0.301-0.476,0.325v4.249h1.949l0.3-0.075l1.05,0.625c-0.05,0.101-0.175,0.2-0.325,0.226
		c-0.649,1.875-1.549,3.725-2.625,5.424c0.275,0.324,0.601,0.699,0.926,1.124c0.574-0.851,1.25-1.949,1.625-2.698L297.275,466.28z
		 M308.522,470.479l1.101,0.649c-0.024,0.101-0.149,0.176-0.274,0.226c-0.925,1.8-2.273,3.224-3.924,4.374
		c1.773,0.925,3.874,1.574,6.147,1.924c-0.375,0.375-0.824,1.025-1.05,1.476c-2.448-0.476-4.698-1.3-6.599-2.475
		c-2.149,1.175-4.648,1.976-7.323,2.499c-0.175-0.425-0.6-1.125-0.899-1.449c2.449-0.399,4.799-1.05,6.823-2.023
		c-1.05-0.8-1.949-1.726-2.675-2.774c-0.875,0.726-1.824,1.424-2.924,2.049c-0.25-0.375-0.75-0.874-1.125-1.1
		c2.649-1.399,4.648-3.299,5.823-4.999h-2.975v-7.098c-0.399,0.55-0.85,1.1-1.324,1.6c-0.301-0.325-0.851-0.773-1.226-0.975
		c1.925-1.925,3.226-4.499,3.924-6.498l1.95,0.3c-0.024,0.175-0.175,0.274-0.476,0.3c-0.25,0.625-0.55,1.3-0.899,1.999h10.522v1.45
		h-11.297c-0.325,0.6-0.727,1.199-1.15,1.773h10.873v7.147h-5.699c-0.1,0.075-0.2,0.101-0.375,0.101
		c-0.35,0.5-0.773,1.051-1.249,1.601h5.998L308.522,470.479z M300.2,462.883v1.8h7.747v-1.8H300.2z M300.2,465.831v1.851h7.747
		v-1.851H300.2z M300.949,471.904l-0.024,0.024c0.75,1.125,1.799,2.125,3.049,2.95c1.3-0.801,2.399-1.775,3.199-2.976
		L300.949,471.904L300.949,471.904z"/>
	<path display="inline" fill="#FFFFFF" d="M319.701,470.43v1.125c1.023,0.725,3.749,2.849,4.397,3.424l-0.999,1.3
		c-0.625-0.7-2.2-2.125-3.398-3.148v6.022h-1.575v-6.698c-1.249,2.051-2.924,4.05-4.475,5.323c-0.199-0.425-0.6-1.023-0.948-1.374
		c1.799-1.225,3.772-3.648,4.974-5.974h-4.35v-1.476h4.799v-2.773l2.05,0.148c-0.024,0.15-0.149,0.275-0.475,0.325v2.3h4.323v1.476
		H319.701L319.701,470.43z M320.101,460.107h-2.499c-0.2,2.424-1,5.023-3.648,7.073c-0.25-0.325-0.801-0.825-1.176-1.025
		c2.375-1.799,3.101-3.998,3.324-6.048h-2.749v-1.5h2.851v-2.724l1.948,0.124c-0.024,0.176-0.148,0.301-0.475,0.324v2.274h3.824
		v5.049c0,0.476,0.05,0.525,0.3,0.525h0.6c0.351,0,0.426-0.275,0.45-2.899c0.3,0.274,0.875,0.476,1.274,0.601
		c-0.101,2.948-0.45,3.624-1.524,3.624h-1.024c-1.149,0-1.476-0.375-1.476-1.824V460.107L320.101,460.107z M336.222,476.229v1.549
		H326.8v1.375h-1.575v-13.896c-0.475,0.948-1,1.85-1.55,2.6c-0.274-0.275-0.85-0.726-1.199-0.975
		c1.851-2.476,3.374-6.725,4.273-10.974l1.975,0.5c-0.05,0.176-0.25,0.25-0.55,0.25c-0.3,1.375-0.699,2.749-1.125,4.1h3.398
		c0.525-1.374,1.101-3.249,1.399-4.6l1.975,0.575c-0.05,0.149-0.25,0.226-0.55,0.25c-0.273,1.074-0.773,2.549-1.249,3.773h3.924
		v1.55h-3.948v3.599h3.674v1.476h-3.674v3.648h3.674v1.476h-3.674v3.725L336.222,476.229L336.222,476.229z M330.424,465.905v-3.599
		H326.8v3.599H330.424z M330.424,471.029v-3.648H326.8v3.648H330.424z M326.8,472.505v3.725h3.624v-3.725H326.8z"/>
	<path display="inline" fill="#FFFFFF" d="M357.848,476.604c-2.199,0.399-5.124,0.574-7.673,0.574c-2.05,0-3.85-0.125-4.824-0.325
		c-3.022-0.675-4.323-2.574-4.323-4.773c0-1.874,1.051-3.823,2.55-5.322l1.449,0.749c-1.399,1.425-2.199,3.05-2.199,4.424
		c0,1.476,0.976,2.773,3.125,3.273c0.85,0.176,2.299,0.275,3.999,0.275c2.424,0,5.372-0.2,7.771-0.675L357.848,476.604z
		 M346.626,464.007c1.299-1.024,3.074-2.225,4.424-2.898v-0.024c-1.899,0.225-6.249,0.3-9.023,0.3c0-0.476,0-1.3-0.023-1.749h1.35
		c3.199,0,9.747-0.051,12.896-0.8l0.2,1.823c-0.825,0.125-1.426,0.25-2.624,0.75c-1.4,0.574-3.824,1.924-5.774,3.499
		L346.626,464.007z M357.823,467.556c-0.726-1.102-2.273-2.601-3.35-3.399l0.825-0.773c1.199,0.874,2.648,2.323,3.424,3.374
		L357.823,467.556z M360.447,465.181c-0.699-0.999-2.175-2.499-3.35-3.374l0.825-0.8c1.225,0.925,2.675,2.35,3.424,3.398
		L360.447,465.181z"/>
	<path display="inline" fill="#FFFFFF" d="M383.822,463.133c-0.073,0.273-0.35,0.448-0.725,0.448c-0.274,1.726-0.675,3.55-1.1,5.1
		c1.35,0.575,2.773,1.225,4.198,1.95l-0.8,1.674c-1.35-0.675-2.648-1.324-3.924-1.874c-1.2,3.599-2.925,6.224-5.574,7.973
		c-0.35-0.35-0.975-0.773-1.425-1.05c2.625-1.725,4.249-4.073,5.399-7.647c-2.524-1-4.824-1.699-6.675-1.85
		c-1.725,6.298-3.273,7.947-6.272,7.947s-3.574-2.398-3.574-3.924c0-3.874,4.024-5.675,8.498-5.698c0.524-1.999,1-4.449,1.35-7.048
		c-1.175,0.1-5.174,0.375-7.072,0.5c-0.101,0.175-0.3,0.3-0.524,0.35l-0.226-2.023c2.148-0.075,6.799-0.375,8.298-0.525
		c0.274-0.024,0.375-0.149,0.55-0.274l1.55,0.926c-0.125,0.199-0.325,0.3-0.625,0.398c-0.398,2.774-0.999,5.648-1.549,7.798
		c1.924,0.15,4.224,0.825,6.723,1.774c0.426-1.499,0.801-3.424,1.075-5.448L383.822,463.133z M371.45,467.756
		c-3.6,0.05-6.474,1.475-6.474,4.124c0,1.399,0.675,2.35,1.851,2.35C368.651,474.229,369.851,473.604,371.45,467.756z"/>
</g>
<g>
	<path fill="#FFFFFF" d="M169.344,489.072c-0.048,0.199-0.216,0.299-0.528,0.299c-0.695,3.25-2.136,7.824-4.344,10.648
		c-0.384-0.275-1.08-0.701-1.512-0.9c2.208-2.699,3.577-7.074,4.177-10.498L169.344,489.072z M173.544,482.672l2.208,0.125
		c-0.024,0.201-0.168,0.326-0.504,0.352v19.943c0,1.301-0.336,1.824-1.152,2.125c-0.864,0.275-2.352,0.324-4.607,0.324
		c-0.12-0.5-0.408-1.299-0.696-1.773c1.08,0.023,2.112,0.051,2.88,0.051c1.68,0,1.872,0,1.872-0.701V482.672z M184.104,500.443
		c-0.6-2.998-2.567-7.748-4.705-11.371l1.536-0.625c2.16,3.574,4.249,8.223,4.873,11.246L184.104,500.443z"/>
	<path fill="#FFFFFF" d="M194.88,490.197h-3.336c-0.288,2.098-1.176,4.299-3.432,5.896c-0.217-0.35-0.769-0.924-1.104-1.174
		c1.944-1.35,2.736-3.049,3.024-4.725h-2.664v-1.523h2.808v-3.824h-2.257v-1.5h10.753v1.5h-2.256v3.824h2.616v1.523h-2.616v5.523
		h-1.536V490.197L194.88,490.197z M199.055,503.142h10.273v1.6h-22.082v-1.6h10.152v-3.498h-7.584v-1.551h7.584v-3.199l2.112,0.15
		c-0.023,0.174-0.144,0.299-0.456,0.35v2.699h7.682v1.551h-7.682V503.142z M191.663,484.847v3.824h3.216v-3.824H191.663z
		 M202.584,483.697c-0.024,0.176-0.145,0.275-0.48,0.326v8.223h-1.512v-8.697L202.584,483.697z M208.56,482.498
		c-0.023,0.174-0.144,0.299-0.456,0.35v11.172c0,1.801-0.983,1.898-4.271,1.898c-0.072-0.449-0.312-1.074-0.528-1.498
		c0.552,0.023,1.08,0.023,1.512,0.023c1.729,0,1.729-0.023,1.729-0.424v-11.646L208.56,482.498z"/>
	<path fill="#FFFFFF" d="M220.032,492.67c-0.097,0.125-0.288,0.15-0.456,0.125c-0.385,0.699-1.057,1.725-1.656,2.5
		c0.624,0.799,1.2,1.574,1.44,1.873l-0.984,1.176c-0.432-0.773-1.44-2.273-2.28-3.449v10.621h-1.464v-9.598
		c-0.936,1.25-1.92,2.352-2.88,3.227c-0.145-0.4-0.576-1.125-0.864-1.4c2.4-2.023,4.896-5.549,6.266-9.098h-5.688v-1.523h3.072
		v-4.699l1.943,0.125c-0.023,0.174-0.144,0.299-0.456,0.324v4.25h1.873l0.288-0.076l1.009,0.625
		c-0.049,0.102-0.168,0.201-0.312,0.227c-0.624,1.875-1.488,3.725-2.52,5.424c0.264,0.324,0.575,0.699,0.888,1.123
		c0.552-0.85,1.2-1.949,1.56-2.697L220.032,492.67z M230.833,496.869l1.056,0.648c-0.022,0.102-0.144,0.176-0.264,0.227
		c-0.888,1.799-2.186,3.223-3.77,4.373c1.704,0.926,3.722,1.574,5.904,1.924c-0.358,0.375-0.792,1.025-1.008,1.475
		c-2.354-0.475-4.513-1.299-6.337-2.473c-2.063,1.174-4.464,1.975-7.032,2.498c-0.168-0.424-0.576-1.125-0.864-1.449
		c2.353-0.398,4.608-1.049,6.553-2.023c-1.009-0.799-1.872-1.725-2.568-2.773c-0.84,0.725-1.752,1.424-2.809,2.049
		c-0.24-0.375-0.721-0.875-1.08-1.1c2.544-1.4,4.464-3.299,5.592-5h-2.856v-7.098c-0.384,0.551-0.815,1.1-1.271,1.6
		c-0.288-0.324-0.816-0.773-1.176-0.975c1.848-1.924,3.096-4.498,3.769-6.498l1.872,0.301c-0.023,0.174-0.168,0.273-0.456,0.299
		c-0.239,0.625-0.527,1.301-0.863,2h10.104v1.449h-10.85c-0.312,0.6-0.695,1.199-1.104,1.773h10.44v7.148h-5.473
		c-0.097,0.074-0.192,0.1-0.36,0.1c-0.336,0.5-0.743,1.051-1.199,1.602h5.761L230.833,496.869z M222.84,489.271v1.801h7.441v-1.801
		H222.84z M222.84,492.22v1.85h7.441v-1.85H222.84z M223.559,498.293l-0.023,0.025c0.72,1.125,1.729,2.125,2.929,2.949
		c1.248-0.801,2.304-1.775,3.072-2.975H223.559L223.559,498.293z"/>
	<path fill="#FFFFFF" d="M241.558,496.82v1.125c0.984,0.725,3.602,2.848,4.226,3.424l-0.96,1.299
		c-0.602-0.699-2.112-2.125-3.266-3.148v6.023h-1.512v-6.699c-1.2,2.051-2.809,4.051-4.297,5.324
		c-0.191-0.426-0.576-1.023-0.912-1.375c1.729-1.225,3.625-3.648,4.776-5.973h-4.177v-1.477h4.608v-2.773l1.968,0.148
		c-0.022,0.15-0.144,0.275-0.456,0.326v2.299h4.152v1.477H241.558L241.558,496.82z M241.943,486.496h-2.399
		c-0.192,2.424-0.961,5.023-3.505,7.074c-0.24-0.326-0.769-0.826-1.128-1.025c2.279-1.799,2.977-3.998,3.191-6.049h-2.641v-1.5
		h2.736v-2.723l1.872,0.123c-0.023,0.176-0.145,0.301-0.456,0.324v2.275h3.673v5.049c0,0.475,0.048,0.525,0.288,0.525h0.575
		c0.337,0,0.407-0.275,0.433-2.9c0.288,0.275,0.84,0.477,1.225,0.602c-0.097,2.947-0.433,3.623-1.465,3.623h-0.982
		c-1.104,0-1.418-0.375-1.418-1.824L241.943,486.496L241.943,486.496z M257.425,502.619v1.549h-9.049v1.375h-1.512v-13.896
		c-0.456,0.949-0.96,1.85-1.488,2.6c-0.264-0.275-0.816-0.725-1.152-0.975c1.776-2.475,3.24-6.725,4.104-10.973l1.896,0.5
		c-0.048,0.176-0.24,0.25-0.527,0.25c-0.288,1.375-0.673,2.748-1.08,4.1h3.265c0.504-1.375,1.056-3.25,1.344-4.6l1.896,0.574
		c-0.048,0.15-0.24,0.227-0.528,0.25c-0.264,1.074-0.744,2.549-1.2,3.773h3.77v1.551h-3.792v3.598h3.527v1.477h-3.527v3.648h3.527
		v1.475h-3.527v3.725H257.425L257.425,502.619z M251.855,492.295v-3.6h-3.479v3.6H251.855z M251.855,497.418v-3.648h-3.479v3.648
		H251.855z M248.376,498.894v3.725h3.479v-3.725H248.376z"/>
	<path fill="#FFFFFF" d="M278.183,502.994c-2.111,0.398-4.92,0.574-7.368,0.574c-1.969,0-3.695-0.125-4.633-0.326
		c-2.903-0.674-4.151-2.574-4.151-4.773c0-1.873,1.008-3.822,2.447-5.322l1.394,0.75c-1.345,1.424-2.112,3.049-2.112,4.424
		c0,1.475,0.937,2.773,3,3.273c0.816,0.176,2.208,0.275,3.841,0.275c2.328,0,5.16-0.201,7.464-0.676L278.183,502.994z
		 M267.408,490.396c1.248-1.025,2.952-2.225,4.248-2.898v-0.025c-1.824,0.225-6.001,0.301-8.665,0.301c0-0.477,0-1.301-0.023-1.75
		h1.296c3.072,0,9.36-0.051,12.385-0.799l0.192,1.822c-0.792,0.125-1.368,0.25-2.521,0.75c-1.345,0.574-3.673,1.924-5.545,3.5
		L267.408,490.396z M278.161,493.945c-0.696-1.102-2.186-2.6-3.217-3.398l0.792-0.773c1.151,0.873,2.545,2.322,3.288,3.373
		L278.161,493.945z M280.68,491.57c-0.672-0.998-2.088-2.498-3.216-3.373l0.792-0.801c1.176,0.926,2.568,2.35,3.288,3.398
		L280.68,491.57z"/>
	<path fill="#FFFFFF" d="M303.12,489.521c-0.072,0.273-0.336,0.449-0.695,0.449c-0.264,1.725-0.648,3.549-1.057,5.1
		c1.297,0.574,2.664,1.225,4.033,1.949l-0.77,1.674c-1.297-0.674-2.545-1.324-3.77-1.873c-1.15,3.598-2.808,6.223-5.352,7.973
		c-0.337-0.35-0.937-0.773-1.368-1.051c2.521-1.725,4.08-4.072,5.185-7.646c-2.424-1-4.632-1.699-6.409-1.85
		c-1.656,6.297-3.146,7.947-6.024,7.947s-3.433-2.398-3.433-3.924c0-3.875,3.864-5.676,8.161-5.699
		c0.504-1.998,0.96-4.449,1.296-7.047c-1.128,0.1-4.969,0.375-6.793,0.5c-0.096,0.174-0.287,0.299-0.504,0.35l-0.216-2.023
		c2.063-0.076,6.527-0.375,7.969-0.525c0.264-0.025,0.359-0.15,0.528-0.275l1.487,0.926c-0.12,0.199-0.312,0.301-0.601,0.398
		c-0.384,2.775-0.96,5.648-1.488,7.799c1.849,0.15,4.057,0.824,6.458,1.773c0.408-1.498,0.768-3.424,1.031-5.447L303.12,489.521z
		 M291.24,494.144c-3.457,0.051-6.218,1.475-6.218,4.125c0,1.398,0.648,2.35,1.776,2.35
		C288.552,500.619,289.704,499.994,291.24,494.144z"/>
	<path fill="#FFFFFF" d="M315.96,493.894c0,1.426-1.104,2.574-2.473,2.574s-2.473-1.148-2.473-2.574
		c0-1.424,1.105-2.574,2.473-2.574C314.904,491.32,315.96,492.521,315.96,493.894z"/>
	<path fill="#FFFFFF" d="M342.865,487.246h-13.08c-0.457,1.051-0.961,2.074-1.514,3.074h11.594v12.996
		c0,2.125-0.961,2.176-5.258,2.176c-0.07-0.475-0.312-1.201-0.551-1.676c0.84,0.025,1.631,0.025,2.279,0.025
		c1.729,0,1.92,0,1.92-0.551v-2.85h-10.152v5.049h-1.607v-12.371c-1.225,1.699-2.641,3.225-4.297,4.475
		c-0.24-0.375-0.744-1-1.08-1.35c2.977-2.174,5.258-5.475,6.816-8.998h-6.312v-1.625h6.982c0.434-1.1,0.77-2.225,1.059-3.324
		l2.088,0.551c-0.049,0.176-0.24,0.275-0.529,0.275c-0.238,0.824-0.504,1.648-0.814,2.498h12.457V487.246z M338.257,494.644v-2.799
		h-10.154v2.799H338.257z M328.103,498.969h10.152v-2.85h-10.152V498.969z"/>
	<path fill="#FFFFFF" d="M356.952,495.219h10.008v1.449h-21.457v-1.449h9.84v-2.023h-7.393v-1.35h7.393v-1.824h-6.553v-1.4h6.553
		v-1.924l2.09,0.148c-0.023,0.176-0.145,0.301-0.48,0.352v1.424h6.744v1.4h-6.744v1.824h7.705v1.35h-7.705V495.219L356.952,495.219z
		 M347.782,486.422v2.824h-1.584v-4.35h9.121v-2.623l2.137,0.123c-0.023,0.176-0.168,0.301-0.48,0.352v2.148h9.336v4.35h-1.631
		v-2.824H347.782z M348.958,505.541v-7.248h14.738v7.148h-1.633v-0.775h-11.545v0.875H348.958z M362.064,499.693h-11.545v3.549
		h11.545V499.693z"/>
	<path fill="#FFFFFF" d="M390.913,489.896h-17.139v3.424c0,3.648-0.553,8.822-3.672,12.322c-0.24-0.352-0.889-0.926-1.225-1.125
		c2.951-3.301,3.312-7.85,3.312-11.223v-3.125c-0.625,0.602-1.271,1.176-1.992,1.727c-0.287-0.4-0.816-0.977-1.225-1.199
		c3.336-2.426,5.641-5.775,6.793-8.449l2.111,0.326c-0.023,0.225-0.191,0.324-0.504,0.35c-0.168,0.35-0.359,0.725-0.576,1.1h6.48
		l0.287-0.1l1.297,0.85c-0.049,0.125-0.191,0.201-0.336,0.25c-0.479,0.975-1.199,2.225-1.92,3.324h8.305v1.549H390.913z
		 M380.736,488.345c0.576-0.824,1.152-1.898,1.607-2.85h-6.408c-0.576,0.951-1.271,1.9-2.064,2.85H380.736z M378.048,502.369
		c0,1.1,0.383,1.35,2.352,1.35h7.152c1.752,0,2.018-0.602,2.209-3.824c0.383,0.301,1.08,0.574,1.512,0.676
		c-0.287,3.723-0.863,4.699-3.672,4.699H380.4c-3,0-3.936-0.553-3.936-2.9v-9.922h9.912l0.359-0.025l0.889,0.125
		c0,0.174-0.023,0.352-0.072,0.525c-0.359,6.771-0.744,6.947-3.312,6.947c-0.6,0-1.393-0.025-2.16-0.074
		c-0.047-0.426-0.215-1.051-0.455-1.477c1.225,0.102,2.375,0.125,2.76,0.125c0.408,0,0.648-0.023,0.816-0.225
		c0.336-0.35,0.553-1.525,0.744-4.424h-7.896V502.369z"/>
	<path fill="#FFFFFF" d="M400.175,483.322l1.08,0.676c-0.047,0.074-0.119,0.176-0.215,0.227c-0.674,1.924-1.682,4.598-2.617,6.746
		c2.424,2.449,2.736,4.051,2.736,5.375c0,3.299-2.209,3.299-3.506,3.299c-0.264,0-0.504,0-0.742-0.025
		c-0.023-0.424-0.191-1.1-0.434-1.498c0.408,0.049,0.816,0.074,1.152,0.074c1.08,0,2.041,0,2.041-2.1
		c0-1.375-0.793-2.949-2.762-4.898c0.842-2,1.656-4.449,2.258-6.273h-3.648v20.619h-1.465v-22.145h5.881L400.175,483.322z
		 M414.265,498.693h-4.945c1.369,3.176,3.387,4.475,6.338,5.5c-0.385,0.35-0.793,0.949-0.961,1.447
		c-3.023-1.197-5.137-2.748-6.576-6.072c-0.814,2.375-2.809,4.574-7.248,6.049c-0.168-0.35-0.602-1-0.889-1.25
		c4.465-1.475,6.191-3.498,6.84-5.674h-5.039v-6.447h5.377v-2.475h-3.889v-1.199c-0.721,0.523-1.488,1-2.258,1.424
		c-0.168-0.375-0.504-0.975-0.791-1.324c2.809-1.449,5.592-3.998,6.912-6.348l2.062,0.074c-0.047,0.148-0.168,0.273-0.357,0.301
		c1.584,2.223,4.439,4.498,6.959,5.672c-0.312,0.375-0.646,1-0.863,1.451c-0.695-0.375-1.439-0.826-2.16-1.326v1.275h-4.129v2.475
		h5.617V498.693z M403.247,497.293h3.84c0.049-0.475,0.072-0.949,0.072-1.424v-2.25h-3.912V497.293z M412.488,488.297
		c-1.775-1.301-3.479-2.898-4.584-4.449c-0.961,1.475-2.496,3.074-4.271,4.449H412.488z M412.775,493.619h-4.127v2.299
		c0,0.451-0.023,0.926-0.072,1.375h4.199V493.619L412.775,493.619z"/>
	<path fill="#FFFFFF" d="M436.103,502.994c-2.111,0.398-4.92,0.574-7.367,0.574c-1.969,0-3.695-0.125-4.633-0.326
		c-2.904-0.674-4.152-2.574-4.152-4.773c0-1.873,1.008-3.822,2.447-5.322l1.395,0.75c-1.346,1.424-2.113,3.049-2.113,4.424
		c0,1.475,0.936,2.773,3,3.273c0.816,0.176,2.209,0.275,3.842,0.275c2.328,0,5.16-0.201,7.463-0.676L436.103,502.994z
		 M425.327,490.396c1.248-1.025,2.951-2.225,4.248-2.898v-0.025c-1.824,0.225-6.002,0.301-8.666,0.301c0-0.477,0-1.301-0.021-1.75
		h1.295c3.072,0,9.361-0.051,12.385-0.799l0.193,1.822c-0.793,0.125-1.369,0.25-2.521,0.75c-1.344,0.574-3.672,1.924-5.545,3.5
		L425.327,490.396z M436.081,493.945c-0.697-1.102-2.186-2.6-3.219-3.398l0.793-0.773c1.152,0.873,2.545,2.322,3.289,3.373
		L436.081,493.945z M438.599,491.57c-0.672-0.998-2.088-2.498-3.215-3.373l0.791-0.801c1.176,0.926,2.568,2.35,3.289,3.398
		L438.599,491.57z"/>
	<path fill="#FFFFFF" d="M461.04,489.521c-0.072,0.273-0.336,0.449-0.695,0.449c-0.264,1.725-0.648,3.549-1.057,5.1
		c1.297,0.574,2.664,1.225,4.031,1.949l-0.768,1.674c-1.297-0.674-2.545-1.324-3.77-1.873c-1.15,3.598-2.809,6.223-5.352,7.973
		c-0.338-0.35-0.938-0.773-1.369-1.051c2.521-1.725,4.08-4.072,5.186-7.646c-2.426-1-4.633-1.699-6.408-1.85
		c-1.656,6.297-3.146,7.947-6.025,7.947s-3.432-2.398-3.432-3.924c0-3.875,3.863-5.676,8.16-5.699
		c0.504-1.998,0.961-4.449,1.297-7.047c-1.129,0.1-4.971,0.375-6.793,0.5c-0.098,0.174-0.287,0.299-0.504,0.35l-0.217-2.023
		c2.064-0.076,6.527-0.375,7.969-0.525c0.264-0.025,0.359-0.15,0.527-0.275l1.488,0.926c-0.119,0.199-0.312,0.301-0.6,0.398
		c-0.385,2.775-0.961,5.648-1.488,7.799c1.848,0.15,4.057,0.824,6.457,1.773c0.408-1.498,0.768-3.424,1.031-5.447L461.04,489.521z
		 M449.159,494.144c-3.457,0.051-6.217,1.475-6.217,4.125c0,1.398,0.648,2.35,1.775,2.35
		C446.472,500.619,447.624,499.994,449.159,494.144z"/>
</g>
</svg>
