<?xml version="1.0" encoding="utf-8"?>
<!-- Generator: Adobe Illustrator 16.0.0, SVG Export Plug-In . SVG Version: 6.00 Build 0)  -->
<!DOCTYPE svg PUBLIC "-//W3C//DTD SVG 1.1//EN" "http://www.w3.org/Graphics/SVG/1.1/DTD/svg11.dtd">
<svg version="1.1" id="レイヤー_1" xmlns="http://www.w3.org/2000/svg" xmlns:xlink="http://www.w3.org/1999/xlink" x="0px"
	 y="0px" width="595.28px" height="841.89px" viewBox="0 0 595.28 841.89" enable-background="new 0 0 595.28 841.89"
	 xml:space="preserve">
<g display="none">
	<path display="inline" fill="#FFFFFF" d="M267.927,381.656c0,1.95-0.05,3.899-0.325,5.798c0.7,0.875,2.5,3.475,2.924,4.124
		l-1.15,1.175c-0.425-0.8-1.325-2.274-2.099-3.449c-0.525,2.475-1.525,4.799-3.274,6.874c-0.25-0.351-0.775-0.875-1.125-1.1
		c3.199-3.85,3.549-8.698,3.549-13.422v-8.748l2,0.125c-0.025,0.15-0.175,0.275-0.5,0.325V381.656z M262.903,384.181
		c0.95-1.35,1.375-3.824,1.424-6.099l1.175,0.175c-0.05,2.399-0.425,5.073-1.524,6.623L262.903,384.181z M271.426,377.407
		c-0.05,0.15-0.225,0.225-0.5,0.225c-0.45,1.475-1.3,3.724-1.975,5.099l-0.975-0.45c0.625-1.45,1.399-3.849,1.799-5.499
		L271.426,377.407z M273.825,390.528c-0.6,2.05-1.525,4.274-3.174,5.624l-1.25-0.85c1.549-1.2,2.574-3.299,3.099-5.224
		L273.825,390.528z M286.122,379.832h-3.524c0.6,3.649,1.824,7.048,3.849,8.598c-0.35,0.3-0.875,0.85-1.1,1.249
		c-1.6-1.374-2.674-3.724-3.374-6.474c-0.6,2.325-1.875,4.55-4.524,6.424c-0.225-0.325-0.7-0.85-1.05-1.074
		c3.524-2.5,4.399-5.649,4.574-8.723h-2.824v-0.2c-1.175,4.849-3.374,8.198-6.223,10.047c-0.2-0.375-0.6-0.874-0.95-1.175
		c1.425-0.85,2.7-2.199,3.749-3.974c-0.625-0.625-1.649-1.399-2.524-1.925l0.75-0.899c0.8,0.45,1.75,1.125,2.375,1.675
		c0.325-0.675,0.625-1.375,0.875-2.125c-0.65-0.525-1.675-1.149-2.524-1.574l0.625-1.025c0.775,0.35,1.65,0.825,2.3,1.3
		c0.25-0.925,0.475-1.9,0.625-2.924h-2.874c-0.8,2.424-1.9,4.624-3.199,6.173c-0.25-0.274-0.775-0.699-1.1-0.924
		c1.8-2.049,3.174-5.673,3.924-9.423l1.85,0.425c-0.05,0.2-0.225,0.3-0.525,0.3c-0.15,0.7-0.325,1.399-0.525,2.074h2.999l0.275-0.05
		l0.875,0.275c-0.025,0.15-0.1,0.225-0.15,0.3c-0.1,0.75-0.225,1.5-0.35,2.2h2.6v-5.449l1.924,0.125
		c-0.025,0.175-0.15,0.3-0.475,0.325v4.999h3.649V379.832z M275.8,395.777c0.025-1.3-0.225-3.324-0.575-4.898l1.375-0.2
		c0.425,1.55,0.675,3.574,0.675,4.874L275.8,395.777z M280.273,395.827c-0.2-1.35-0.9-3.374-1.649-4.924l1.325-0.399
		c0.8,1.524,1.524,3.574,1.774,4.898L280.273,395.827z M285.047,396.178c-0.5-1.475-1.774-3.85-2.974-5.599l1.325-0.525
		c1.25,1.725,2.549,4.049,3.074,5.523L285.047,396.178z M284.272,373.508c0.75,1.175,1.5,2.699,1.8,3.699l-1.225,0.525
		c-0.275-1.05-1-2.6-1.699-3.774L284.272,373.508z"/>
	<path display="inline" fill="#FFFFFF" d="M293.376,381.606c0,1.95-0.05,3.899-0.325,5.798c0.85,0.925,3.1,3.574,3.625,4.249
		l-1.15,1.225c-0.525-0.85-1.825-2.524-2.824-3.724c-0.575,2.524-1.675,4.924-3.674,7.023c-0.25-0.351-0.775-0.9-1.149-1.125
		c3.574-3.799,3.974-8.698,3.974-13.447v-8.698c1.175,0.1,1.6,0.1,2,0.125c-0.025,0.175-0.15,0.3-0.475,0.325V381.606z
		 M287.903,384.205c1.025-1.324,1.475-3.799,1.524-6.123l1.225,0.175c-0.05,2.399-0.475,5.023-1.625,6.548L287.903,384.205z
		 M297.351,377.957c-0.075,0.125-0.25,0.2-0.5,0.2c-0.5,1.4-1.375,3.499-2.075,4.849c-0.025-0.025-1.049-0.55-1.049-0.55
		c0.649-1.375,1.5-3.674,1.924-5.249L297.351,377.957z M306.248,393.778c0,0.574,0.101,0.675,0.775,0.675h2.149
		c0.6,0,0.725-0.351,0.8-2.85c0.325,0.25,0.975,0.5,1.399,0.625c-0.149,2.924-0.574,3.649-2.024,3.649h-2.524
		c-1.774,0-2.175-0.45-2.175-2.125v-5.773h-2.624c-0.024,0.149-0.2,0.25-0.475,0.274c-0.35,3.925-1.25,6.523-5.624,7.924
		c-0.15-0.375-0.575-0.95-0.925-1.225c3.849-1.175,4.724-3.3,4.974-6.974h-3.774v-1.475h3.075v-3.3h-3.075v-1.499h3.075v-3.125
		l2.024,0.15c-0.025,0.15-0.15,0.275-0.475,0.325v2.649h5.648v-3.125l2.049,0.15c-0.024,0.15-0.149,0.275-0.475,0.325v2.649h3.1
		v1.499h-3.1v3.3h3.149v1.475h-4.474c-0.05,0.149-0.175,0.25-0.476,0.274V393.778z M302.824,380.106v-3.049h-5.649v-1.45h5.649
		v-2.699l2.1,0.125c-0.025,0.175-0.15,0.3-0.5,0.35v2.225h5.799v1.45h-5.799v3.049H302.824z M300.825,383.205v3.3h5.648v-3.3
		H300.825z"/>
	<path display="inline" fill="#FFFFFF" d="M332.848,393.604c-2.199,0.399-5.124,0.574-7.673,0.574c-2.05,0-3.849-0.125-4.823-0.325
		c-3.024-0.675-4.324-2.574-4.324-4.773c0-1.874,1.05-3.824,2.549-5.323l1.45,0.749c-1.399,1.425-2.199,3.05-2.199,4.424
		c0,1.476,0.975,2.774,3.124,3.274c0.85,0.175,2.299,0.275,3.999,0.275c2.424,0,5.373-0.2,7.772-0.675L332.848,393.604z
		 M321.626,381.006c1.299-1.024,3.074-2.224,4.424-2.899v-0.025c-1.899,0.225-6.248,0.3-9.022,0.3c0-0.475,0-1.3-0.025-1.75h1.35
		c3.199,0,9.747-0.05,12.896-0.8l0.2,1.824c-0.825,0.125-1.425,0.25-2.624,0.75c-1.4,0.575-3.824,1.924-5.774,3.499L321.626,381.006
		z M332.823,384.556c-0.726-1.101-2.274-2.6-3.35-3.399l0.825-0.775c1.199,0.875,2.649,2.325,3.424,3.375L332.823,384.556z
		 M335.447,382.181c-0.7-1-2.175-2.499-3.35-3.374l0.825-0.8c1.225,0.925,2.675,2.35,3.424,3.399L335.447,382.181z"/>
	<path display="inline" fill="#FFFFFF" d="M358.822,380.131c-0.074,0.275-0.35,0.45-0.725,0.45c-0.274,1.725-0.675,3.549-1.1,5.099
		c1.35,0.575,2.774,1.225,4.199,1.95l-0.8,1.674c-1.35-0.675-2.649-1.324-3.924-1.874c-1.2,3.599-2.925,6.224-5.574,7.973
		c-0.35-0.35-0.975-0.774-1.425-1.05c2.625-1.725,4.249-4.073,5.399-7.647c-2.524-1-4.824-1.7-6.674-1.85
		c-1.725,6.298-3.274,7.947-6.273,7.947s-3.574-2.398-3.574-3.924c0-3.874,4.024-5.674,8.498-5.698c0.524-2,1-4.449,1.35-7.048
		c-1.175,0.1-5.174,0.375-7.073,0.5c-0.1,0.175-0.3,0.3-0.524,0.35l-0.226-2.024c2.149-0.075,6.799-0.375,8.298-0.525
		c0.275-0.025,0.375-0.15,0.55-0.275l1.55,0.925c-0.125,0.2-0.325,0.3-0.625,0.4c-0.399,2.774-0.999,5.648-1.549,7.798
		c1.924,0.15,4.224,0.825,6.723,1.774c0.425-1.499,0.8-3.424,1.075-5.448L358.822,380.131z M346.45,384.755
		c-3.599,0.05-6.473,1.475-6.473,4.124c0,1.4,0.675,2.35,1.85,2.35C343.651,391.229,344.851,390.604,346.45,384.755z"/>
</g>
<g display="none">
	<path display="inline" fill="#FFFFFF" d="M263.178,421.206c1.825-0.475,4.474-1.25,7.123-1.999l0.2,1.35
		c-2.299,0.75-4.699,1.524-6.224,1.975c-0.025,0.2-0.15,0.325-0.3,0.399L263.178,421.206z M272.65,434.354
		c-0.1,0.125-0.3,0.199-0.55,0.149c-2,1-5.049,2.05-7.523,2.675c-0.3-0.325-0.825-0.925-1.149-1.225
		c2.449-0.525,5.574-1.475,7.423-2.5L272.65,434.354z M265.227,414.508c1.775,0.475,4.099,1.325,5.324,1.975l-0.75,1.325
		c-1.2-0.675-3.524-1.6-5.324-2.149L265.227,414.508z M266.577,433.104v-10.247h16.421v10.247H266.577z M268.202,424.056v1.824
		h13.122v-1.824H268.202z M268.202,427.03v1.85h13.122v-1.85H268.202z M268.202,430.029v1.899h13.122v-1.899H268.202z
		 M278.874,417.107c0.6,2.049,2.049,3.949,7.273,4.749c-0.325,0.326-0.725,0.95-0.9,1.375c-4.399-0.775-6.248-2.5-7.173-4.399
		c-0.9,1.899-2.7,3.174-6.574,3.949c-0.125-0.35-0.5-0.925-0.775-1.2c4.174-0.75,5.749-2.074,6.349-4.474H274.2
		c-0.625,0.775-1.4,1.524-2.3,2.224c-0.3-0.325-0.875-0.675-1.274-0.85c1.924-1.325,3.199-3.074,3.874-4.599l1.875,0.275
		c-0.025,0.175-0.175,0.275-0.475,0.3c-0.2,0.425-0.45,0.875-0.75,1.325h9.098l0.3-0.025l1,0.125
		c-0.325,0.95-1.75,2.949-2.625,3.774l-1.35-0.5c0.55-0.525,1.125-1.3,1.625-2.049H278.874z M284.073,437.178
		c-1.625-0.825-4.374-1.875-7.198-2.774l1.375-0.875c2.774,0.85,5.824,1.925,7.673,2.749L284.073,437.178z"/>
	<path display="inline" fill="#FFFFFF" d="M288.902,420.957c1.55,0.65,3.424,1.75,4.349,2.599l-1,1.35
		c-0.875-0.875-2.724-1.999-4.274-2.724L288.902,420.957z M288.527,435.803c1.15-1.975,2.774-5.349,3.924-8.198l1.35,0.95
		c-1.075,2.649-2.524,5.773-3.574,7.698c0.1,0.149,0.15,0.274,0.15,0.375c0,0.1-0.025,0.175-0.075,0.25L288.527,435.803z
		 M293.426,418.282c-0.875-0.9-2.699-2.15-4.224-2.924l0.975-1.2c1.524,0.725,3.374,1.875,4.274,2.799L293.426,418.282z
		 M309.723,428.279h-4.749v7.023c0,1.725-0.699,1.85-4.249,1.8c-0.075-0.425-0.3-1.024-0.5-1.45
		c1.275,0.025,2.399,0.025,2.725,0.025c0.325-0.025,0.425-0.125,0.425-0.399v-6.999h-4.349v-8.623h3.849c0.25-0.9,0.5-2.1,0.65-3
		H297.4v5.424c0,4.399-0.4,10.673-3.399,14.921c-0.3-0.3-1.025-0.725-1.4-0.899c2.899-4.099,3.174-9.848,3.174-14.021v-6.973h15.346
		v1.549h-6.373l0.975,0.25c-0.075,0.175-0.25,0.25-0.55,0.275c-0.15,0.675-0.425,1.65-0.7,2.475h5.249V428.279z M301.725,430.304
		c-0.075,0.176-0.275,0.25-0.524,0.226c-0.925,1.85-2.375,3.898-3.75,5.198c-0.3-0.274-0.85-0.699-1.2-0.925
		c1.35-1.175,2.75-3.174,3.599-5.099L301.725,430.304z M300.55,421.006v2.275h7.573v-2.275H300.55z M300.55,424.605v2.3h7.573v-2.3
		H300.55z M309.973,435.578c-0.575-1.425-2.024-3.649-3.324-5.274l1.375-0.675c1.324,1.575,2.824,3.725,3.449,5.149L309.973,435.578
		z"/>
	<path display="inline" fill="#FFFFFF" d="M332.848,434.604c-2.199,0.399-5.124,0.574-7.673,0.574c-2.05,0-3.849-0.125-4.823-0.325
		c-3.024-0.675-4.324-2.574-4.324-4.773c0-1.874,1.05-3.824,2.549-5.323l1.45,0.749c-1.399,1.425-2.199,3.05-2.199,4.424
		c0,1.476,0.975,2.774,3.124,3.274c0.85,0.175,2.299,0.275,3.999,0.275c2.424,0,5.373-0.2,7.772-0.675L332.848,434.604z
		 M321.626,422.006c1.299-1.024,3.074-2.224,4.424-2.899v-0.025c-1.899,0.225-6.248,0.3-9.022,0.3c0-0.475,0-1.3-0.025-1.75h1.35
		c3.199,0,9.747-0.05,12.896-0.8l0.2,1.824c-0.825,0.125-1.425,0.25-2.624,0.75c-1.4,0.575-3.824,1.924-5.774,3.5L321.626,422.006z
		 M332.823,425.556c-0.726-1.101-2.274-2.6-3.35-3.399l0.825-0.775c1.199,0.875,2.649,2.325,3.424,3.375L332.823,425.556z
		 M335.447,423.181c-0.7-0.999-2.175-2.499-3.35-3.374l0.825-0.8c1.225,0.925,2.675,2.35,3.424,3.399L335.447,423.181z"/>
	<path display="inline" fill="#FFFFFF" d="M358.822,421.131c-0.074,0.275-0.35,0.45-0.725,0.45c-0.274,1.725-0.675,3.549-1.1,5.099
		c1.35,0.575,2.774,1.225,4.199,1.95l-0.8,1.674c-1.35-0.675-2.649-1.324-3.924-1.874c-1.2,3.599-2.925,6.224-5.574,7.973
		c-0.35-0.35-0.975-0.774-1.425-1.05c2.625-1.725,4.249-4.073,5.399-7.647c-2.524-1-4.824-1.7-6.674-1.85
		c-1.725,6.298-3.274,7.947-6.273,7.947s-3.574-2.398-3.574-3.924c0-3.874,4.024-5.674,8.498-5.698c0.524-1.999,1-4.449,1.35-7.048
		c-1.175,0.1-5.174,0.375-7.073,0.5c-0.1,0.175-0.3,0.3-0.524,0.35l-0.226-2.024c2.149-0.075,6.799-0.375,8.298-0.525
		c0.275-0.025,0.375-0.15,0.55-0.275l1.55,0.925c-0.125,0.2-0.325,0.3-0.625,0.4c-0.399,2.774-0.999,5.648-1.549,7.798
		c1.924,0.15,4.224,0.825,6.723,1.774c0.425-1.499,0.8-3.424,1.075-5.448L358.822,421.131z M346.45,425.755
		c-3.599,0.05-6.473,1.475-6.473,4.124c0,1.4,0.675,2.35,1.85,2.35C343.651,432.229,344.851,431.604,346.45,425.755z"/>
</g>
<g>
	<path fill="#FFFFFF" d="M260.797,464.981h-9.773c1.625,5.973,4.849,10.572,10.173,12.546c-0.425,0.375-0.975,1.075-1.25,1.575
		c-5.224-2.149-8.398-6.573-10.248-12.597c-1.149,4.948-3.874,9.848-10.322,12.621c-0.25-0.449-0.775-1.049-1.2-1.424
		c6.598-2.675,9.073-7.674,10.022-12.722h-9.647v-1.725h9.922c0.325-2.6,0.3-5.149,0.325-7.323l2.349,0.125
		c-0.025,0.225-0.225,0.35-0.55,0.425c-0.025,1.975-0.05,4.323-0.35,6.773h10.548V464.981z"/>
	<path fill="#FFFFFF" d="M271.076,463.807h-3.474c-0.3,2.099-1.225,4.299-3.574,5.898c-0.225-0.351-0.8-0.925-1.149-1.175
		c2.024-1.35,2.849-3.049,3.149-4.724h-2.774v-1.524h2.924v-3.824h-2.349v-1.5h11.197v1.5h-2.35v3.824h2.725v1.524h-2.725v5.523
		h-1.6V463.807z M275.425,476.753h10.697v1.6h-22.994v-1.6H273.7v-3.499h-7.898v-1.55h7.898v-3.199l2.199,0.15
		c-0.025,0.175-0.15,0.3-0.475,0.35v2.699h7.998v1.55h-7.998V476.753z M267.727,458.458v3.824h3.349v-3.824H267.727z
		 M279.099,457.308c-0.025,0.176-0.15,0.275-0.5,0.325v8.223h-1.575v-8.697L279.099,457.308z M285.322,456.108
		c-0.025,0.175-0.15,0.3-0.475,0.35v11.172c0,1.8-1.024,1.899-4.449,1.899c-0.075-0.449-0.325-1.074-0.55-1.499
		c0.575,0.024,1.125,0.024,1.575,0.024c1.799,0,1.799-0.024,1.799-0.425v-11.646L285.322,456.108z"/>
	<path fill="#FFFFFF" d="M297.275,466.28c-0.1,0.125-0.3,0.15-0.475,0.125c-0.4,0.7-1.1,1.725-1.725,2.5
		c0.649,0.8,1.25,1.574,1.5,1.874l-1.025,1.175c-0.45-0.774-1.5-2.274-2.375-3.449v10.622h-1.524v-9.598c-0.975,1.25-2,2.35-3,3.225
		c-0.15-0.399-0.6-1.125-0.899-1.399c2.499-2.024,5.099-5.549,6.523-9.098h-5.924v-1.524h3.199v-4.699l2.024,0.125
		c-0.025,0.175-0.15,0.3-0.475,0.325v4.249h1.949l0.3-0.075l1.05,0.625c-0.05,0.1-0.175,0.2-0.325,0.225
		c-0.65,1.875-1.549,3.725-2.625,5.424c0.275,0.324,0.6,0.699,0.925,1.124c0.575-0.85,1.25-1.949,1.625-2.698L297.275,466.28z
		 M308.522,470.479l1.1,0.649c-0.024,0.101-0.149,0.176-0.274,0.226c-0.925,1.8-2.274,3.224-3.924,4.374
		c1.774,0.925,3.874,1.574,6.148,1.924c-0.375,0.375-0.825,1.025-1.05,1.475c-2.449-0.475-4.699-1.299-6.599-2.474
		c-2.149,1.175-4.648,1.975-7.323,2.499c-0.175-0.425-0.6-1.125-0.9-1.449c2.45-0.4,4.799-1.05,6.824-2.024
		c-1.05-0.8-1.95-1.725-2.675-2.774c-0.875,0.725-1.824,1.424-2.924,2.049c-0.25-0.375-0.75-0.874-1.125-1.1
		c2.649-1.399,4.648-3.299,5.823-4.999h-2.974v-7.098c-0.4,0.55-0.85,1.1-1.325,1.6c-0.3-0.325-0.85-0.774-1.225-0.975
		c1.925-1.925,3.225-4.499,3.924-6.498l1.95,0.3c-0.025,0.175-0.175,0.274-0.476,0.3c-0.25,0.625-0.55,1.3-0.899,1.999h10.522v1.45
		h-11.297c-0.325,0.6-0.726,1.199-1.15,1.774h10.873v7.147h-5.699c-0.1,0.075-0.2,0.101-0.375,0.101c-0.35,0.5-0.774,1.05-1.249,1.6
		h5.998L308.522,470.479z M300.2,462.882v1.8h7.748v-1.8H300.2z M300.2,465.831v1.85h7.748v-1.85H300.2z M300.949,471.904
		l-0.024,0.024c0.75,1.125,1.799,2.125,3.049,2.95c1.3-0.8,2.399-1.775,3.199-2.975H300.949z"/>
	<path fill="#FFFFFF" d="M319.701,470.43v1.125c1.024,0.725,3.749,2.849,4.398,3.424l-0.999,1.3c-0.625-0.7-2.2-2.125-3.399-3.149
		v6.023h-1.575v-6.698c-1.249,2.05-2.924,4.049-4.474,5.323c-0.2-0.425-0.6-1.024-0.949-1.374c1.799-1.225,3.773-3.649,4.974-5.974
		h-4.35v-1.475h4.799v-2.774l2.05,0.149c-0.024,0.15-0.149,0.275-0.475,0.325v2.3h4.324v1.475H319.701z M320.101,460.107h-2.499
		c-0.2,2.424-1,5.023-3.649,7.073c-0.25-0.325-0.8-0.825-1.175-1.025c2.375-1.799,3.1-3.998,3.324-6.048h-2.749v-1.5h2.85v-2.724
		l1.949,0.124c-0.025,0.176-0.149,0.301-0.475,0.325v2.274h3.824v5.049c0,0.475,0.05,0.525,0.3,0.525h0.6
		c0.35,0,0.425-0.275,0.45-2.899c0.3,0.274,0.875,0.475,1.274,0.6c-0.1,2.949-0.45,3.624-1.524,3.624h-1.025
		c-1.149,0-1.475-0.375-1.475-1.824V460.107z M336.222,476.229v1.549H326.8v1.375h-1.575v-13.896c-0.475,0.949-1,1.85-1.55,2.6
		c-0.274-0.275-0.85-0.726-1.199-0.975c1.85-2.475,3.374-6.724,4.273-10.973l1.975,0.5c-0.05,0.175-0.25,0.25-0.55,0.25
		c-0.3,1.375-0.699,2.749-1.125,4.099h3.399c0.525-1.374,1.1-3.249,1.399-4.599l1.975,0.575c-0.05,0.149-0.25,0.225-0.55,0.25
		c-0.274,1.074-0.774,2.549-1.249,3.773h3.924v1.55h-3.949v3.599h3.674v1.475h-3.674v3.649h3.674v1.475h-3.674v3.725H336.222z
		 M330.424,465.905v-3.599H326.8v3.599H330.424z M330.424,471.029v-3.649H326.8v3.649H330.424z M326.8,472.504v3.725h3.624v-3.725
		H326.8z"/>
	<path fill="#FFFFFF" d="M357.848,476.604c-2.199,0.399-5.124,0.574-7.673,0.574c-2.05,0-3.85-0.125-4.824-0.325
		c-3.023-0.675-4.323-2.574-4.323-4.773c0-1.874,1.05-3.824,2.549-5.323l1.45,0.749c-1.4,1.425-2.2,3.05-2.2,4.424
		c0,1.476,0.976,2.774,3.125,3.274c0.85,0.175,2.299,0.275,3.999,0.275c2.424,0,5.373-0.2,7.772-0.675L357.848,476.604z
		 M346.626,464.006c1.299-1.024,3.074-2.224,4.424-2.898v-0.025c-1.899,0.225-6.249,0.3-9.023,0.3c0-0.475,0-1.3-0.024-1.749h1.35
		c3.199,0,9.747-0.051,12.896-0.8l0.2,1.824c-0.825,0.125-1.425,0.25-2.624,0.75c-1.4,0.574-3.824,1.924-5.774,3.499
		L346.626,464.006z M357.823,467.556c-0.726-1.101-2.274-2.6-3.35-3.399l0.825-0.774c1.199,0.874,2.649,2.324,3.424,3.374
		L357.823,467.556z M360.447,465.181c-0.7-0.999-2.175-2.499-3.35-3.374l0.825-0.8c1.225,0.925,2.675,2.35,3.424,3.399
		L360.447,465.181z"/>
	<path fill="#FFFFFF" d="M383.822,463.132c-0.074,0.274-0.35,0.449-0.725,0.449c-0.274,1.725-0.675,3.549-1.1,5.099
		c1.35,0.575,2.774,1.225,4.199,1.95l-0.8,1.674c-1.35-0.675-2.649-1.324-3.924-1.874c-1.2,3.599-2.925,6.224-5.574,7.973
		c-0.35-0.35-0.975-0.774-1.425-1.05c2.625-1.725,4.249-4.073,5.399-7.647c-2.524-1-4.824-1.7-6.674-1.85
		c-1.725,6.298-3.274,7.947-6.273,7.947s-3.574-2.398-3.574-3.924c0-3.874,4.024-5.674,8.498-5.698c0.524-1.999,1-4.449,1.35-7.048
		c-1.175,0.1-5.174,0.375-7.073,0.5c-0.1,0.175-0.3,0.3-0.524,0.35l-0.226-2.024c2.149-0.075,6.799-0.375,8.298-0.525
		c0.275-0.024,0.375-0.149,0.55-0.274l1.55,0.925c-0.125,0.2-0.325,0.3-0.625,0.399c-0.399,2.774-0.999,5.648-1.549,7.798
		c1.924,0.15,4.224,0.825,6.723,1.774c0.425-1.499,0.8-3.424,1.075-5.448L383.822,463.132z M371.45,467.755
		c-3.599,0.05-6.473,1.475-6.473,4.124c0,1.4,0.675,2.35,1.85,2.35C368.651,474.229,369.851,473.604,371.45,467.755z"/>
</g>
<g display="none">
	<path display="inline" fill="#FFFFFF" d="M168.225,497.682c-0.048,0.2-0.216,0.3-0.528,0.3c-0.696,3.249-2.136,7.823-4.344,10.647
		c-0.384-0.275-1.08-0.7-1.512-0.9c2.208-2.699,3.577-7.073,4.177-10.497L168.225,497.682z M172.425,491.283l2.208,0.125
		c-0.024,0.2-0.168,0.325-0.504,0.35v19.945c0,1.3-0.336,1.824-1.152,2.124c-0.864,0.275-2.352,0.325-4.608,0.325
		c-0.12-0.5-0.408-1.3-0.696-1.774c1.08,0.024,2.112,0.05,2.88,0.05c1.68,0,1.872,0,1.872-0.7V491.283z M182.986,509.054
		c-0.6-2.999-2.568-7.748-4.705-11.372l1.536-0.625c2.16,3.574,4.249,8.223,4.873,11.247L182.986,509.054z"/>
	<path display="inline" fill="#FFFFFF" d="M193.761,498.807h-3.336c-0.288,2.099-1.176,4.299-3.432,5.898
		c-0.216-0.351-0.768-0.925-1.104-1.175c1.944-1.35,2.736-3.049,3.024-4.724h-2.664v-1.524h2.808v-3.824H186.8v-1.5h10.753v1.5
		h-2.256v3.824h2.616v1.524h-2.616v5.523h-1.536V498.807z M197.937,511.753h10.273v1.6h-22.082v-1.6h10.153v-3.499h-7.584v-1.55
		h7.584v-3.199l2.112,0.15c-0.024,0.175-0.144,0.3-0.456,0.35v2.699h7.681v1.55h-7.681V511.753z M190.544,493.458v3.824h3.216
		v-3.824H190.544z M201.465,492.308c-0.024,0.176-0.144,0.275-0.48,0.325v8.223h-1.512v-8.697L201.465,492.308z M207.442,491.108
		c-0.024,0.175-0.144,0.3-0.456,0.35v11.172c0,1.8-0.984,1.899-4.272,1.899c-0.072-0.449-0.312-1.074-0.528-1.499
		c0.552,0.024,1.08,0.024,1.512,0.024c1.728,0,1.728-0.024,1.728-0.425v-11.646L207.442,491.108z"/>
	<path display="inline" fill="#FFFFFF" d="M218.913,501.28c-0.096,0.125-0.288,0.15-0.456,0.125c-0.384,0.7-1.056,1.725-1.656,2.5
		c0.624,0.8,1.2,1.574,1.44,1.874l-0.984,1.175c-0.432-0.774-1.44-2.274-2.28-3.449v10.622h-1.464v-9.598
		c-0.936,1.25-1.92,2.35-2.88,3.225c-0.144-0.399-0.576-1.125-0.864-1.399c2.4-2.024,4.896-5.549,6.265-9.098h-5.688v-1.524h3.072
		v-4.699l1.944,0.125c-0.024,0.175-0.144,0.3-0.456,0.325v4.249h1.873l0.288-0.075l1.008,0.625c-0.048,0.1-0.168,0.2-0.312,0.225
		c-0.624,1.875-1.488,3.725-2.52,5.424c0.264,0.324,0.576,0.699,0.888,1.124c0.552-0.85,1.2-1.949,1.56-2.698L218.913,501.28z
		 M229.714,505.479l1.056,0.649c-0.023,0.101-0.144,0.176-0.264,0.226c-0.888,1.8-2.185,3.224-3.769,4.374
		c1.704,0.925,3.721,1.574,5.904,1.924c-0.359,0.375-0.792,1.025-1.008,1.475c-2.353-0.475-4.513-1.299-6.337-2.474
		c-2.063,1.175-4.464,1.975-7.032,2.499c-0.168-0.425-0.576-1.125-0.864-1.449c2.352-0.4,4.608-1.05,6.552-2.024
		c-1.008-0.8-1.872-1.725-2.568-2.774c-0.84,0.725-1.752,1.424-2.809,2.049c-0.24-0.375-0.72-0.874-1.08-1.1
		c2.544-1.399,4.464-3.299,5.592-4.999h-2.856v-7.098c-0.384,0.55-0.816,1.1-1.272,1.6c-0.288-0.325-0.816-0.774-1.176-0.975
		c1.848-1.925,3.096-4.499,3.769-6.498l1.872,0.3c-0.023,0.175-0.168,0.274-0.456,0.3c-0.239,0.625-0.527,1.3-0.863,1.999h10.104
		v1.45h-10.849c-0.312,0.6-0.696,1.199-1.104,1.774h10.441v7.147h-5.473c-0.097,0.075-0.192,0.101-0.36,0.101
		c-0.336,0.5-0.744,1.05-1.2,1.6h5.761L229.714,505.479z M221.721,497.882v1.8h7.441v-1.8H221.721z M221.721,500.831v1.85h7.441
		v-1.85H221.721z M222.441,506.904l-0.024,0.024c0.72,1.125,1.729,2.125,2.929,2.95c1.248-0.8,2.304-1.775,3.072-2.975H222.441z"/>
	<path display="inline" fill="#FFFFFF" d="M240.44,505.43v1.125c0.984,0.725,3.601,2.849,4.225,3.424l-0.96,1.3
		c-0.601-0.7-2.112-2.125-3.265-3.149v6.023h-1.512v-6.698c-1.2,2.05-2.809,4.049-4.297,5.323c-0.191-0.425-0.576-1.024-0.912-1.374
		c1.729-1.225,3.625-3.649,4.776-5.974h-4.176v-1.475h4.608v-2.774l1.968,0.149c-0.023,0.15-0.144,0.275-0.456,0.325v2.3h4.152
		v1.475H240.44z M240.824,495.107h-2.399c-0.192,2.424-0.961,5.023-3.505,7.073c-0.24-0.325-0.768-0.825-1.128-1.025
		c2.28-1.799,2.977-3.998,3.192-6.048h-2.641v-1.5h2.736v-2.724l1.872,0.124c-0.023,0.176-0.144,0.301-0.456,0.325v2.274h3.673
		v5.049c0,0.475,0.048,0.525,0.288,0.525h0.576c0.336,0,0.407-0.275,0.432-2.899c0.288,0.274,0.84,0.475,1.225,0.6
		c-0.097,2.949-0.433,3.624-1.465,3.624h-0.983c-1.104,0-1.417-0.375-1.417-1.824V495.107z M256.306,511.229v1.549h-9.049v1.375
		h-1.512v-13.896c-0.456,0.949-0.96,1.85-1.488,2.6c-0.264-0.275-0.816-0.726-1.152-0.975c1.776-2.475,3.24-6.724,4.104-10.973
		l1.896,0.5c-0.048,0.175-0.24,0.25-0.528,0.25c-0.288,1.375-0.672,2.749-1.08,4.099h3.265c0.504-1.374,1.056-3.249,1.344-4.599
		l1.896,0.575c-0.048,0.149-0.24,0.225-0.528,0.25c-0.264,1.074-0.744,2.549-1.2,3.773h3.769v1.55h-3.792v3.599h3.528v1.475h-3.528
		v3.649h3.528v1.475h-3.528v3.725H256.306z M250.737,500.905v-3.599h-3.48v3.599H250.737z M250.737,506.029v-3.649h-3.48v3.649
		H250.737z M247.257,507.504v3.725h3.48v-3.725H247.257z"/>
	<path display="inline" fill="#FFFFFF" d="M277.065,511.604c-2.112,0.399-4.92,0.574-7.368,0.574c-1.969,0-3.696-0.125-4.633-0.325
		c-2.904-0.675-4.152-2.574-4.152-4.773c0-1.874,1.008-3.824,2.448-5.323l1.393,0.749c-1.345,1.425-2.112,3.05-2.112,4.424
		c0,1.476,0.936,2.774,3,3.274c0.816,0.175,2.208,0.275,3.841,0.275c2.328,0,5.16-0.2,7.464-0.675L277.065,511.604z
		 M266.289,499.006c1.248-1.024,2.952-2.224,4.248-2.898v-0.025c-1.824,0.225-6.001,0.3-8.665,0.3c0-0.475,0-1.3-0.023-1.749h1.296
		c3.072,0,9.36-0.051,12.385-0.8l0.192,1.824c-0.792,0.125-1.368,0.25-2.521,0.75c-1.344,0.574-3.672,1.924-5.544,3.499
		L266.289,499.006z M277.042,502.556c-0.696-1.101-2.185-2.6-3.217-3.399l0.792-0.774c1.152,0.874,2.545,2.324,3.289,3.374
		L277.042,502.556z M279.562,500.181c-0.672-0.999-2.088-2.499-3.216-3.374l0.792-0.8c1.176,0.925,2.568,2.35,3.288,3.399
		L279.562,500.181z"/>
	<path display="inline" fill="#FFFFFF" d="M302.002,498.132c-0.072,0.274-0.336,0.449-0.696,0.449
		c-0.264,1.725-0.648,3.549-1.056,5.099c1.296,0.575,2.664,1.225,4.032,1.95l-0.769,1.674c-1.296-0.675-2.544-1.324-3.769-1.874
		c-1.151,3.599-2.808,6.224-5.352,7.973c-0.337-0.35-0.937-0.774-1.368-1.05c2.52-1.725,4.08-4.073,5.184-7.647
		c-2.424-1-4.632-1.7-6.408-1.85c-1.656,6.298-3.145,7.947-6.024,7.947s-3.433-2.398-3.433-3.924c0-3.874,3.864-5.674,8.161-5.698
		c0.504-1.999,0.96-4.449,1.296-7.048c-1.128,0.1-4.969,0.375-6.793,0.5c-0.096,0.175-0.287,0.3-0.504,0.35l-0.216-2.024
		c2.064-0.075,6.528-0.375,7.969-0.525c0.264-0.024,0.36-0.149,0.528-0.274l1.488,0.925c-0.12,0.2-0.313,0.3-0.601,0.399
		c-0.384,2.774-0.96,5.648-1.488,7.798c1.849,0.15,4.057,0.825,6.457,1.774c0.408-1.499,0.768-3.424,1.032-5.448L302.002,498.132z
		 M290.121,502.755c-3.457,0.05-6.217,1.475-6.217,4.124c0,1.4,0.648,2.35,1.776,2.35
		C287.433,509.229,288.585,508.604,290.121,502.755z"/>
	<path display="inline" fill="#FFFFFF" d="M314.842,502.505c0,1.425-1.104,2.575-2.473,2.575s-2.472-1.15-2.472-2.575
		c0-1.424,1.104-2.574,2.472-2.574C313.785,499.931,314.842,501.131,314.842,502.505z"/>
	<path display="inline" fill="#FFFFFF" d="M341.746,495.857h-13.081c-0.456,1.05-0.96,2.074-1.513,3.074h11.593v12.996
		c0,2.125-0.96,2.175-5.256,2.175c-0.072-0.475-0.313-1.2-0.552-1.675c0.84,0.025,1.632,0.025,2.279,0.025
		c1.729,0,1.921,0,1.921-0.55v-2.85h-10.153v5.049h-1.608V501.73c-1.224,1.699-2.64,3.225-4.296,4.474
		c-0.24-0.375-0.744-0.999-1.08-1.35c2.977-2.174,5.257-5.474,6.816-8.997h-6.313v-1.625h6.984c0.433-1.1,0.769-2.225,1.057-3.324
		l2.088,0.55c-0.048,0.175-0.24,0.275-0.528,0.275c-0.239,0.824-0.504,1.649-0.815,2.499h12.457V495.857z M337.138,503.255v-2.799
		h-10.153v2.799H337.138z M326.984,507.579h10.153v-2.85h-10.153V507.579z"/>
	<path display="inline" fill="#FFFFFF" d="M355.833,503.83h10.009v1.449h-21.458v-1.449h9.841v-2.024h-7.393v-1.35h7.393v-1.824
		h-6.553v-1.4h6.553v-1.924l2.089,0.149c-0.024,0.175-0.145,0.3-0.48,0.35v1.425h6.744v1.4h-6.744v1.824h7.705v1.35h-7.705V503.83z
		 M346.664,495.032v2.824h-1.584v-4.349h9.121v-2.624l2.136,0.124c-0.023,0.176-0.168,0.301-0.479,0.351v2.149h9.336v4.349h-1.632
		v-2.824H346.664z M347.84,514.152v-7.248h14.737v7.148h-1.632v-0.775H349.4v0.875H347.84z M360.945,508.304H349.4v3.549h11.545
		V508.304z"/>
	<path display="inline" fill="#FFFFFF" d="M389.794,498.507h-17.138v3.424c0,3.648-0.552,8.822-3.672,12.321
		c-0.24-0.35-0.889-0.925-1.225-1.124c2.952-3.3,3.313-7.849,3.313-11.223v-3.124c-0.624,0.6-1.272,1.175-1.992,1.725
		c-0.288-0.399-0.816-0.975-1.225-1.199c3.337-2.425,5.641-5.774,6.793-8.448l2.112,0.325c-0.024,0.225-0.192,0.324-0.504,0.35
		c-0.168,0.35-0.36,0.725-0.576,1.1h6.48l0.288-0.1l1.296,0.85c-0.048,0.125-0.191,0.2-0.336,0.25
		c-0.479,0.975-1.2,2.225-1.92,3.324h8.305V498.507z M379.617,496.957c0.576-0.825,1.152-1.899,1.608-2.85h-6.409
		c-0.576,0.95-1.271,1.899-2.064,2.85H379.617z M376.929,510.979c0,1.1,0.384,1.35,2.353,1.35h7.152
		c1.752,0,2.017-0.601,2.208-3.824c0.384,0.3,1.08,0.575,1.513,0.675c-0.288,3.724-0.864,4.699-3.673,4.699h-7.2
		c-3.001,0-3.937-0.551-3.937-2.899v-9.923h9.913l0.359-0.025l0.889,0.125c0,0.175-0.024,0.351-0.072,0.525
		c-0.36,6.773-0.744,6.948-3.313,6.948c-0.6,0-1.392-0.025-2.16-0.075c-0.048-0.425-0.216-1.05-0.456-1.475
		c1.225,0.1,2.376,0.125,2.761,0.125c0.407,0,0.647-0.025,0.815-0.225c0.336-0.351,0.553-1.525,0.744-4.424h-7.896V510.979z"/>
	<path display="inline" fill="#FFFFFF" d="M399.057,491.933l1.08,0.675c-0.048,0.075-0.12,0.176-0.216,0.226
		c-0.672,1.925-1.681,4.599-2.616,6.748c2.424,2.449,2.736,4.049,2.736,5.374c0,3.299-2.209,3.299-3.505,3.299
		c-0.264,0-0.504,0-0.744-0.025c-0.023-0.425-0.191-1.1-0.432-1.499c0.408,0.05,0.816,0.075,1.152,0.075c1.08,0,2.04,0,2.04-2.1
		c0-1.375-0.792-2.949-2.761-4.899c0.841-1.999,1.656-4.448,2.257-6.273H394.4v20.62h-1.464v-22.145h5.88L399.057,491.933z
		 M413.146,507.304h-4.944c1.368,3.175,3.385,4.475,6.337,5.499c-0.384,0.35-0.792,0.95-0.96,1.449
		c-3.024-1.199-5.137-2.749-6.577-6.073c-0.815,2.375-2.808,4.574-7.248,6.049c-0.168-0.35-0.601-1-0.889-1.25
		c4.465-1.475,6.192-3.499,6.841-5.674h-5.04v-6.448h5.376v-2.474h-3.888v-1.2c-0.721,0.525-1.488,1-2.257,1.425
		c-0.168-0.375-0.504-0.975-0.792-1.324c2.809-1.45,5.593-3.999,6.913-6.349l2.063,0.074c-0.048,0.15-0.168,0.275-0.359,0.301
		c1.584,2.224,4.44,4.498,6.96,5.673c-0.312,0.375-0.647,1-0.864,1.45c-0.695-0.375-1.439-0.825-2.16-1.325v1.275h-4.128v2.474
		h5.616V507.304z M402.129,505.904h3.84c0.049-0.475,0.072-0.949,0.072-1.425v-2.249h-3.912V505.904z M411.37,496.907
		c-1.776-1.3-3.48-2.899-4.585-4.449c-0.96,1.475-2.496,3.074-4.272,4.449H411.37z M411.657,502.23h-4.128v2.299
		c0,0.45-0.024,0.925-0.072,1.375h4.2V502.23z"/>
	<path display="inline" fill="#FFFFFF" d="M434.985,511.604c-2.112,0.399-4.92,0.574-7.368,0.574c-1.969,0-3.696-0.125-4.633-0.325
		c-2.904-0.675-4.152-2.574-4.152-4.773c0-1.874,1.008-3.824,2.448-5.323l1.393,0.749c-1.345,1.425-2.112,3.05-2.112,4.424
		c0,1.476,0.936,2.774,3,3.274c0.816,0.175,2.208,0.275,3.841,0.275c2.328,0,5.16-0.2,7.464-0.675L434.985,511.604z
		 M424.209,499.006c1.248-1.024,2.952-2.224,4.248-2.898v-0.025c-1.824,0.225-6.001,0.3-8.665,0.3c0-0.475,0-1.3-0.023-1.749h1.296
		c3.072,0,9.36-0.051,12.385-0.8l0.192,1.824c-0.792,0.125-1.368,0.25-2.521,0.75c-1.344,0.574-3.672,1.924-5.544,3.499
		L424.209,499.006z M434.962,502.556c-0.696-1.101-2.185-2.6-3.217-3.399l0.792-0.774c1.152,0.874,2.545,2.324,3.289,3.374
		L434.962,502.556z M437.481,500.181c-0.672-0.999-2.088-2.499-3.216-3.374l0.792-0.8c1.176,0.925,2.568,2.35,3.288,3.399
		L437.481,500.181z"/>
	<path display="inline" fill="#FFFFFF" d="M459.922,498.132c-0.072,0.274-0.336,0.449-0.696,0.449
		c-0.264,1.725-0.648,3.549-1.056,5.099c1.296,0.575,2.664,1.225,4.032,1.95l-0.769,1.674c-1.296-0.675-2.544-1.324-3.769-1.874
		c-1.151,3.599-2.808,6.224-5.352,7.973c-0.337-0.35-0.937-0.774-1.368-1.05c2.52-1.725,4.08-4.073,5.184-7.647
		c-2.424-1-4.632-1.7-6.408-1.85c-1.656,6.298-3.145,7.947-6.024,7.947s-3.433-2.398-3.433-3.924c0-3.874,3.864-5.674,8.161-5.698
		c0.504-1.999,0.96-4.449,1.296-7.048c-1.128,0.1-4.969,0.375-6.793,0.5c-0.096,0.175-0.287,0.3-0.504,0.35l-0.216-2.024
		c2.064-0.075,6.528-0.375,7.969-0.525c0.264-0.024,0.36-0.149,0.528-0.274l1.488,0.925c-0.12,0.2-0.313,0.3-0.601,0.399
		c-0.384,2.774-0.96,5.648-1.488,7.798c1.849,0.15,4.057,0.825,6.457,1.774c0.408-1.499,0.768-3.424,1.032-5.448L459.922,498.132z
		 M448.041,502.755c-3.457,0.05-6.217,1.475-6.217,4.124c0,1.4,0.648,2.35,1.776,2.35
		C445.353,509.229,446.505,508.604,448.041,502.755z"/>
</g>
</svg>
