<?xml version="1.0" encoding="utf-8"?>
<!-- Generator: Adobe Illustrator 16.0.0, SVG Export Plug-In . SVG Version: 6.00 Build 0)  -->
<!DOCTYPE svg PUBLIC "-//W3C//DTD SVG 1.1//EN" "http://www.w3.org/Graphics/SVG/1.1/DTD/svg11.dtd">
<svg version="1.1" id="レイヤー_1" xmlns="http://www.w3.org/2000/svg" xmlns:xlink="http://www.w3.org/1999/xlink" x="0px"
	 y="0px" width="172px" height="46.562px" viewBox="231.14 413.883 172 46.562" enable-background="new 231.14 413.883 172 46.562"
	 xml:space="preserve">
<g display="none">
	<path display="inline" fill="#FFFFFF" d="M267.927,381.656c0,1.95-0.05,3.899-0.325,5.798c0.7,0.875,2.5,3.476,2.924,4.124
		l-1.149,1.176c-0.425-0.801-1.325-2.274-2.1-3.449c-0.524,2.475-1.524,4.799-3.273,6.874c-0.25-0.352-0.775-0.875-1.125-1.101
		c3.199-3.85,3.549-8.697,3.549-13.422v-8.748l2,0.125c-0.025,0.15-0.175,0.275-0.5,0.325V381.656L267.927,381.656z
		 M262.903,384.181c0.95-1.351,1.375-3.824,1.425-6.1l1.175,0.176c-0.05,2.398-0.425,5.072-1.524,6.623L262.903,384.181z
		 M271.426,377.407c-0.05,0.15-0.225,0.226-0.5,0.226c-0.45,1.475-1.3,3.724-1.975,5.099l-0.976-0.45
		c0.625-1.45,1.399-3.849,1.799-5.499L271.426,377.407z M273.825,390.528c-0.601,2.05-1.525,4.274-3.175,5.624l-1.25-0.85
		c1.55-1.2,2.574-3.299,3.1-5.225L273.825,390.528z M286.122,379.832h-3.524c0.601,3.649,1.824,7.049,3.849,8.599
		c-0.35,0.3-0.875,0.85-1.1,1.249c-1.6-1.374-2.674-3.725-3.374-6.475c-0.6,2.325-1.875,4.551-4.523,6.425
		c-0.226-0.325-0.7-0.851-1.051-1.074c3.524-2.5,4.399-5.649,4.574-8.724h-2.824v-0.199c-1.175,4.849-3.374,8.197-6.223,10.047
		c-0.2-0.375-0.6-0.874-0.95-1.175c1.425-0.851,2.7-2.199,3.749-3.975c-0.625-0.625-1.648-1.398-2.523-1.925l0.75-0.899
		c0.8,0.45,1.75,1.125,2.375,1.676c0.324-0.676,0.625-1.375,0.875-2.125c-0.65-0.525-1.676-1.149-2.524-1.574l0.625-1.025
		c0.775,0.351,1.65,0.825,2.3,1.3c0.25-0.925,0.476-1.899,0.625-2.924h-2.874c-0.8,2.424-1.899,4.624-3.199,6.173
		c-0.25-0.273-0.774-0.698-1.1-0.924c1.8-2.049,3.174-5.673,3.924-9.423l1.851,0.425c-0.051,0.2-0.226,0.3-0.525,0.3
		c-0.15,0.7-0.325,1.399-0.525,2.074h2.999l0.275-0.05l0.875,0.275c-0.025,0.149-0.1,0.225-0.15,0.3c-0.1,0.75-0.225,1.5-0.35,2.2
		h2.6v-5.449l1.925,0.125c-0.025,0.175-0.15,0.3-0.476,0.325v4.999h3.649v1.448H286.122z M275.8,395.777
		c0.025-1.3-0.225-3.324-0.575-4.897l1.375-0.2c0.425,1.55,0.675,3.574,0.675,4.874L275.8,395.777z M280.273,395.827
		c-0.2-1.35-0.899-3.374-1.648-4.924l1.325-0.398c0.8,1.523,1.523,3.573,1.773,4.897L280.273,395.827z M285.047,396.178
		c-0.5-1.476-1.774-3.851-2.975-5.6l1.325-0.524c1.25,1.725,2.549,4.049,3.074,5.522L285.047,396.178z M284.272,373.509
		c0.75,1.175,1.5,2.698,1.8,3.698l-1.225,0.525c-0.275-1.05-1-2.6-1.699-3.773L284.272,373.509z"/>
	<path display="inline" fill="#FFFFFF" d="M293.376,381.606c0,1.95-0.05,3.899-0.325,5.798c0.85,0.925,3.1,3.574,3.625,4.249
		l-1.15,1.226c-0.524-0.851-1.824-2.524-2.823-3.725c-0.575,2.524-1.676,4.924-3.675,7.023c-0.25-0.352-0.774-0.9-1.148-1.125
		c3.574-3.799,3.974-8.698,3.974-13.447v-8.698c1.175,0.101,1.601,0.101,2,0.125c-0.024,0.175-0.149,0.3-0.475,0.325v8.249H293.376z
		 M287.903,384.205c1.025-1.323,1.476-3.799,1.524-6.123l1.225,0.176c-0.05,2.398-0.475,5.022-1.625,6.548L287.903,384.205z
		 M297.351,377.957c-0.075,0.125-0.25,0.2-0.5,0.2c-0.5,1.4-1.375,3.499-2.075,4.85c-0.024-0.025-1.049-0.551-1.049-0.551
		c0.649-1.375,1.5-3.674,1.924-5.249L297.351,377.957z M306.248,393.778c0,0.574,0.101,0.675,0.774,0.675h2.149
		c0.6,0,0.725-0.351,0.8-2.85c0.325,0.25,0.975,0.5,1.399,0.625c-0.149,2.924-0.574,3.649-2.024,3.649h-2.524
		c-1.773,0-2.175-0.45-2.175-2.125v-5.773h-2.624c-0.023,0.149-0.2,0.25-0.475,0.274c-0.351,3.925-1.25,6.522-5.624,7.924
		c-0.15-0.375-0.575-0.95-0.925-1.226c3.849-1.175,4.724-3.3,4.974-6.974H296.2v-1.475h3.074v-3.301H296.2v-1.499h3.074v-3.125
		l2.024,0.15c-0.025,0.15-0.15,0.275-0.475,0.325v2.648h5.647v-3.125l2.049,0.15c-0.023,0.15-0.148,0.275-0.475,0.325v2.648h3.1
		v1.499h-3.1v3.3h3.148v1.476h-4.474c-0.05,0.148-0.175,0.25-0.476,0.273v5.528H306.248z M302.824,380.106v-3.049h-5.649v-1.45
		h5.649v-2.699l2.1,0.125c-0.025,0.175-0.15,0.3-0.5,0.351v2.225h5.799v1.45h-5.799v3.049L302.824,380.106L302.824,380.106z
		 M300.825,383.205v3.301h5.647v-3.301H300.825z"/>
	<path display="inline" fill="#FFFFFF" d="M332.848,393.604c-2.199,0.399-5.124,0.574-7.673,0.574c-2.05,0-3.849-0.125-4.823-0.325
		c-3.023-0.675-4.324-2.574-4.324-4.773c0-1.874,1.051-3.823,2.55-5.322l1.449,0.749c-1.398,1.425-2.198,3.05-2.198,4.424
		c0,1.476,0.975,2.773,3.124,3.273c0.85,0.176,2.299,0.275,3.999,0.275c2.424,0,5.372-0.2,7.771-0.675L332.848,393.604z
		 M321.626,381.007c1.299-1.024,3.074-2.225,4.424-2.899v-0.025c-1.899,0.226-6.248,0.301-9.022,0.301c0-0.476,0-1.301-0.024-1.75
		h1.35c3.199,0,9.747-0.051,12.896-0.801l0.2,1.824c-0.825,0.125-1.426,0.25-2.624,0.75c-1.4,0.575-3.824,1.924-5.774,3.499
		L321.626,381.007z M332.823,384.556c-0.726-1.102-2.273-2.601-3.35-3.399l0.825-0.774c1.199,0.875,2.648,2.324,3.424,3.375
		L332.823,384.556z M335.447,382.181c-0.699-1-2.175-2.499-3.35-3.374l0.825-0.8c1.225,0.925,2.675,2.35,3.424,3.398
		L335.447,382.181z"/>
	<path display="inline" fill="#FFFFFF" d="M358.822,380.132c-0.073,0.274-0.35,0.449-0.725,0.449c-0.274,1.726-0.675,3.55-1.1,5.1
		c1.35,0.575,2.773,1.225,4.198,1.95l-0.8,1.674c-1.35-0.675-2.648-1.324-3.924-1.874c-1.2,3.599-2.925,6.224-5.574,7.973
		c-0.35-0.35-0.975-0.773-1.425-1.05c2.625-1.725,4.249-4.073,5.399-7.646c-2.524-1-4.824-1.7-6.675-1.851
		c-1.725,6.298-3.273,7.947-6.272,7.947s-3.574-2.398-3.574-3.924c0-3.874,4.024-5.675,8.498-5.698c0.524-2,1-4.449,1.35-7.048
		c-1.175,0.1-5.174,0.375-7.072,0.5c-0.101,0.175-0.3,0.3-0.524,0.35l-0.226-2.023c2.148-0.075,6.799-0.375,8.298-0.525
		c0.274-0.025,0.375-0.15,0.55-0.275l1.55,0.926c-0.125,0.199-0.325,0.3-0.625,0.399c-0.398,2.774-0.999,5.648-1.549,7.798
		c1.924,0.15,4.224,0.825,6.723,1.774c0.426-1.499,0.801-3.424,1.075-5.448L358.822,380.132z M346.45,384.756
		c-3.6,0.05-6.474,1.475-6.474,4.124c0,1.399,0.675,2.35,1.851,2.35C343.651,391.229,344.851,390.604,346.45,384.756z"/>
</g>
<g>
	<path fill="#FFFFFF" d="M268.131,432.84c1.825-0.475,4.474-1.25,7.123-2l0.2,1.352c-2.299,0.75-4.699,1.523-6.225,1.975
		c-0.024,0.199-0.149,0.324-0.3,0.398L268.131,432.84z M277.603,445.988c-0.1,0.125-0.3,0.199-0.55,0.148
		c-2,1-5.049,2.051-7.522,2.676c-0.301-0.326-0.825-0.926-1.149-1.227c2.449-0.523,5.574-1.475,7.423-2.5L277.603,445.988z
		 M270.18,426.142c1.775,0.475,4.1,1.324,5.324,1.975l-0.75,1.324c-1.2-0.674-3.524-1.6-5.324-2.148L270.18,426.142z
		 M271.531,444.738V434.49h16.421v10.248H271.531z M273.156,435.689v1.824h13.122v-1.824H273.156z M273.156,438.664v1.85h13.122
		v-1.85H273.156z M273.156,441.662v1.9h13.122v-1.9H273.156z M283.827,428.74c0.6,2.049,2.049,3.949,7.272,4.75
		c-0.325,0.326-0.725,0.949-0.899,1.375c-4.399-0.775-6.248-2.5-7.173-4.4c-0.9,1.9-2.7,3.176-6.574,3.949
		c-0.125-0.35-0.5-0.924-0.775-1.199c4.174-0.75,5.749-2.074,6.35-4.475h-2.874c-0.625,0.775-1.4,1.525-2.301,2.225
		c-0.3-0.324-0.875-0.676-1.273-0.85c1.924-1.326,3.199-3.074,3.874-4.6l1.875,0.275c-0.025,0.174-0.175,0.275-0.476,0.299
		c-0.199,0.426-0.449,0.875-0.75,1.326h9.099l0.3-0.025l1,0.125c-0.325,0.949-1.75,2.949-2.625,3.773l-1.351-0.5
		c0.551-0.523,1.125-1.299,1.625-2.049H283.827L283.827,428.74z M289.026,448.812c-1.625-0.826-4.373-1.875-7.197-2.775l1.375-0.875
		c2.773,0.852,5.824,1.926,7.673,2.75L289.026,448.812z"/>
	<path fill="#FFFFFF" d="M293.855,432.59c1.551,0.65,3.425,1.75,4.35,2.6l-1,1.35c-0.875-0.875-2.725-1.998-4.274-2.723
		L293.855,432.59z M293.48,447.437c1.15-1.977,2.774-5.35,3.925-8.199l1.35,0.951c-1.075,2.648-2.524,5.771-3.574,7.697
		c0.101,0.148,0.15,0.273,0.15,0.375c0,0.1-0.025,0.176-0.075,0.25L293.48,447.437z M298.379,429.916
		c-0.875-0.9-2.699-2.15-4.224-2.924l0.975-1.201c1.524,0.727,3.374,1.875,4.274,2.799L298.379,429.916z M314.676,439.912h-4.749
		v7.023c0,1.725-0.699,1.85-4.249,1.801c-0.075-0.426-0.3-1.025-0.5-1.451c1.275,0.025,2.399,0.025,2.726,0.025
		c0.324-0.025,0.425-0.125,0.425-0.398v-7h-4.35v-8.623h3.85c0.25-0.898,0.5-2.1,0.649-3h-6.125v5.424
		c0,4.4-0.399,10.674-3.398,14.922c-0.3-0.301-1.025-0.725-1.4-0.898c2.899-4.1,3.174-9.848,3.174-14.021v-6.973h15.347v1.549
		h-6.373l0.975,0.25c-0.075,0.174-0.25,0.25-0.55,0.275c-0.15,0.674-0.425,1.648-0.7,2.475h5.249L314.676,439.912L314.676,439.912z
		 M306.678,441.937c-0.075,0.176-0.274,0.25-0.523,0.227c-0.926,1.85-2.375,3.898-3.75,5.197c-0.301-0.273-0.851-0.699-1.2-0.924
		c1.35-1.176,2.75-3.174,3.599-5.1L306.678,441.937z M305.503,432.64v2.273h7.573v-2.273H305.503z M305.503,436.238v2.301h7.573
		v-2.301H305.503z M314.926,447.211c-0.575-1.424-2.023-3.648-3.324-5.273l1.375-0.674c1.324,1.574,2.824,3.725,3.449,5.148
		L314.926,447.211z"/>
	<path fill="#FFFFFF" d="M337.801,446.238c-2.199,0.398-5.124,0.574-7.673,0.574c-2.05,0-3.849-0.125-4.823-0.326
		c-3.023-0.674-4.324-2.574-4.324-4.773c0-1.873,1.051-3.822,2.55-5.322l1.449,0.75c-1.398,1.424-2.198,3.049-2.198,4.424
		c0,1.475,0.975,2.773,3.124,3.273c0.85,0.176,2.299,0.275,3.999,0.275c2.424,0,5.372-0.201,7.771-0.676L337.801,446.238z
		 M326.579,433.64c1.299-1.025,3.074-2.225,4.424-2.9v-0.025c-1.899,0.227-6.248,0.301-9.022,0.301c0-0.475,0-1.301-0.024-1.75h1.35
		c3.199,0,9.747-0.051,12.896-0.801l0.2,1.824c-0.825,0.125-1.426,0.25-2.624,0.75c-1.4,0.576-3.824,1.924-5.774,3.5L326.579,433.64
		z M337.776,437.189c-0.726-1.102-2.273-2.6-3.35-3.398l0.825-0.775c1.199,0.875,2.648,2.324,3.424,3.375L337.776,437.189z
		 M340.4,434.814c-0.699-0.998-2.175-2.498-3.35-3.373l0.825-0.801c1.225,0.926,2.675,2.35,3.424,3.398L340.4,434.814z"/>
	<path fill="#FFFFFF" d="M363.775,432.765c-0.073,0.273-0.35,0.449-0.725,0.449c-0.274,1.725-0.675,3.549-1.1,5.1
		c1.35,0.574,2.773,1.225,4.198,1.949l-0.8,1.674c-1.35-0.674-2.648-1.324-3.924-1.873c-1.2,3.598-2.925,6.223-5.574,7.973
		c-0.35-0.35-0.975-0.773-1.425-1.051c2.625-1.725,4.249-4.072,5.399-7.646c-2.524-1-4.824-1.699-6.675-1.85
		c-1.725,6.297-3.273,7.947-6.272,7.947s-3.574-2.398-3.574-3.924c0-3.875,4.024-5.676,8.498-5.699c0.524-1.998,1-4.449,1.35-7.047
		c-1.175,0.1-5.174,0.375-7.072,0.5c-0.101,0.174-0.3,0.299-0.524,0.35l-0.226-2.023c2.148-0.076,6.799-0.375,8.298-0.525
		c0.274-0.025,0.375-0.15,0.55-0.275l1.55,0.926c-0.125,0.199-0.325,0.299-0.625,0.398c-0.398,2.775-0.999,5.648-1.549,7.799
		c1.924,0.15,4.224,0.824,6.723,1.773c0.426-1.498,0.801-3.424,1.075-5.447L363.775,432.765z M351.404,437.388
		c-3.6,0.051-6.474,1.475-6.474,4.125c0,1.398,0.675,2.35,1.851,2.35C348.604,443.863,349.804,443.238,351.404,437.388z"/>
</g>
<g display="none">
	<path display="inline" fill="#FFFFFF" d="M260.797,464.981h-9.773c1.625,5.973,4.85,10.572,10.173,12.546
		c-0.425,0.375-0.975,1.075-1.25,1.575c-5.224-2.149-8.397-6.573-10.248-12.597c-1.148,4.947-3.873,9.848-10.321,12.621
		c-0.25-0.449-0.775-1.05-1.2-1.425c6.598-2.675,9.073-7.674,10.021-12.722h-9.646v-1.725h9.922c0.325-2.601,0.3-5.149,0.325-7.323
		l2.349,0.125c-0.024,0.225-0.225,0.35-0.55,0.425c-0.025,1.975-0.05,4.323-0.35,6.773h10.548L260.797,464.981L260.797,464.981z"/>
	<path display="inline" fill="#FFFFFF" d="M271.076,463.807h-3.475c-0.3,2.099-1.225,4.299-3.574,5.897
		c-0.225-0.351-0.8-0.925-1.148-1.175c2.023-1.35,2.849-3.049,3.148-4.724h-2.773v-1.524h2.924v-3.823h-2.349v-1.5h11.196v1.5h-2.35
		v3.823h2.725v1.524h-2.725v5.522h-1.6V463.807z M275.425,476.754h10.697v1.6h-22.994v-1.6H273.7v-3.499h-7.898v-1.551h7.898v-3.198
		l2.198,0.149c-0.024,0.175-0.149,0.3-0.475,0.351v2.698h7.998v1.551h-7.998L275.425,476.754L275.425,476.754z M267.727,458.459
		v3.823h3.35v-3.823H267.727z M279.099,457.308c-0.024,0.176-0.149,0.275-0.5,0.325v8.223h-1.575v-8.697L279.099,457.308z
		 M285.322,456.108c-0.024,0.175-0.149,0.3-0.475,0.351v11.172c0,1.8-1.024,1.898-4.449,1.898c-0.075-0.449-0.325-1.074-0.55-1.499
		c0.575,0.024,1.125,0.024,1.575,0.024c1.799,0,1.799-0.024,1.799-0.425v-11.646L285.322,456.108z"/>
	<path display="inline" fill="#FFFFFF" d="M297.275,466.28c-0.1,0.125-0.3,0.15-0.475,0.125c-0.4,0.7-1.1,1.726-1.725,2.5
		c0.648,0.8,1.25,1.574,1.5,1.874l-1.025,1.175c-0.45-0.773-1.5-2.273-2.375-3.448v10.622h-1.524v-9.599
		c-0.975,1.25-2,2.351-3,3.226c-0.149-0.399-0.6-1.125-0.898-1.399c2.499-2.024,5.099-5.549,6.522-9.098h-5.924v-1.524h3.199v-4.699
		l2.024,0.125c-0.025,0.176-0.15,0.301-0.476,0.325v4.249h1.949l0.3-0.075l1.05,0.625c-0.05,0.101-0.175,0.2-0.325,0.226
		c-0.649,1.875-1.549,3.725-2.625,5.424c0.275,0.324,0.601,0.699,0.926,1.124c0.574-0.851,1.25-1.949,1.625-2.698L297.275,466.28z
		 M308.522,470.479l1.101,0.649c-0.024,0.101-0.149,0.176-0.274,0.226c-0.925,1.8-2.273,3.224-3.924,4.374
		c1.773,0.925,3.874,1.574,6.147,1.924c-0.375,0.375-0.824,1.025-1.05,1.476c-2.448-0.476-4.698-1.3-6.599-2.475
		c-2.149,1.175-4.648,1.976-7.323,2.499c-0.175-0.425-0.6-1.125-0.899-1.449c2.449-0.399,4.799-1.05,6.823-2.023
		c-1.05-0.8-1.949-1.726-2.675-2.774c-0.875,0.726-1.824,1.424-2.924,2.049c-0.25-0.375-0.75-0.874-1.125-1.1
		c2.649-1.399,4.648-3.299,5.823-4.999h-2.975v-7.098c-0.399,0.55-0.85,1.1-1.324,1.6c-0.301-0.325-0.851-0.773-1.226-0.975
		c1.925-1.925,3.226-4.499,3.924-6.498l1.95,0.3c-0.024,0.175-0.175,0.274-0.476,0.3c-0.25,0.625-0.55,1.3-0.899,1.999h10.522v1.45
		h-11.297c-0.325,0.6-0.727,1.199-1.15,1.773h10.873v7.147h-5.699c-0.1,0.075-0.2,0.101-0.375,0.101
		c-0.35,0.5-0.773,1.051-1.249,1.601h5.998L308.522,470.479z M300.2,462.883v1.8h7.747v-1.8H300.2z M300.2,465.831v1.851h7.747
		v-1.851H300.2z M300.949,471.904l-0.024,0.024c0.75,1.125,1.799,2.125,3.049,2.95c1.3-0.801,2.399-1.775,3.199-2.976
		L300.949,471.904L300.949,471.904z"/>
	<path display="inline" fill="#FFFFFF" d="M319.701,470.43v1.125c1.023,0.725,3.749,2.849,4.397,3.424l-0.999,1.3
		c-0.625-0.7-2.2-2.125-3.398-3.148v6.022h-1.575v-6.698c-1.249,2.051-2.924,4.05-4.475,5.323c-0.199-0.425-0.6-1.023-0.948-1.374
		c1.799-1.225,3.772-3.648,4.974-5.974h-4.35v-1.476h4.799v-2.773l2.05,0.148c-0.024,0.15-0.149,0.275-0.475,0.325v2.3h4.323v1.476
		H319.701L319.701,470.43z M320.101,460.107h-2.499c-0.2,2.424-1,5.023-3.648,7.073c-0.25-0.325-0.801-0.825-1.176-1.025
		c2.375-1.799,3.101-3.998,3.324-6.048h-2.749v-1.5h2.851v-2.724l1.948,0.124c-0.024,0.176-0.148,0.301-0.475,0.324v2.274h3.824
		v5.049c0,0.476,0.05,0.525,0.3,0.525h0.6c0.351,0,0.426-0.275,0.45-2.899c0.3,0.274,0.875,0.476,1.274,0.601
		c-0.101,2.948-0.45,3.624-1.524,3.624h-1.024c-1.149,0-1.476-0.375-1.476-1.824V460.107L320.101,460.107z M336.222,476.229v1.549
		H326.8v1.375h-1.575v-13.896c-0.475,0.948-1,1.85-1.55,2.6c-0.274-0.275-0.85-0.726-1.199-0.975
		c1.851-2.476,3.374-6.725,4.273-10.974l1.975,0.5c-0.05,0.176-0.25,0.25-0.55,0.25c-0.3,1.375-0.699,2.749-1.125,4.1h3.398
		c0.525-1.374,1.101-3.249,1.399-4.6l1.975,0.575c-0.05,0.149-0.25,0.226-0.55,0.25c-0.273,1.074-0.773,2.549-1.249,3.773h3.924
		v1.55h-3.948v3.599h3.674v1.476h-3.674v3.648h3.674v1.476h-3.674v3.725L336.222,476.229L336.222,476.229z M330.424,465.905v-3.599
		H326.8v3.599H330.424z M330.424,471.029v-3.648H326.8v3.648H330.424z M326.8,472.505v3.725h3.624v-3.725H326.8z"/>
	<path display="inline" fill="#FFFFFF" d="M357.848,476.604c-2.199,0.399-5.124,0.574-7.673,0.574c-2.05,0-3.85-0.125-4.824-0.325
		c-3.022-0.675-4.323-2.574-4.323-4.773c0-1.874,1.051-3.823,2.55-5.322l1.449,0.749c-1.399,1.425-2.199,3.05-2.199,4.424
		c0,1.476,0.976,2.773,3.125,3.273c0.85,0.176,2.299,0.275,3.999,0.275c2.424,0,5.372-0.2,7.771-0.675L357.848,476.604z
		 M346.626,464.007c1.299-1.024,3.074-2.225,4.424-2.898v-0.024c-1.899,0.225-6.249,0.3-9.023,0.3c0-0.476,0-1.3-0.023-1.749h1.35
		c3.199,0,9.747-0.051,12.896-0.8l0.2,1.823c-0.825,0.125-1.426,0.25-2.624,0.75c-1.4,0.574-3.824,1.924-5.774,3.499
		L346.626,464.007z M357.823,467.556c-0.726-1.102-2.273-2.601-3.35-3.399l0.825-0.773c1.199,0.874,2.648,2.323,3.424,3.374
		L357.823,467.556z M360.447,465.181c-0.699-0.999-2.175-2.499-3.35-3.374l0.825-0.8c1.225,0.925,2.675,2.35,3.424,3.398
		L360.447,465.181z"/>
	<path display="inline" fill="#FFFFFF" d="M383.822,463.133c-0.073,0.273-0.35,0.448-0.725,0.448c-0.274,1.726-0.675,3.55-1.1,5.1
		c1.35,0.575,2.773,1.225,4.198,1.95l-0.8,1.674c-1.35-0.675-2.648-1.324-3.924-1.874c-1.2,3.599-2.925,6.224-5.574,7.973
		c-0.35-0.35-0.975-0.773-1.425-1.05c2.625-1.725,4.249-4.073,5.399-7.647c-2.524-1-4.824-1.699-6.675-1.85
		c-1.725,6.298-3.273,7.947-6.272,7.947s-3.574-2.398-3.574-3.924c0-3.874,4.024-5.675,8.498-5.698c0.524-1.999,1-4.449,1.35-7.048
		c-1.175,0.1-5.174,0.375-7.072,0.5c-0.101,0.175-0.3,0.3-0.524,0.35l-0.226-2.023c2.148-0.075,6.799-0.375,8.298-0.525
		c0.274-0.024,0.375-0.149,0.55-0.274l1.55,0.926c-0.125,0.199-0.325,0.3-0.625,0.398c-0.398,2.774-0.999,5.648-1.549,7.798
		c1.924,0.15,4.224,0.825,6.723,1.774c0.426-1.499,0.801-3.424,1.075-5.448L383.822,463.133z M371.45,467.756
		c-3.6,0.05-6.474,1.475-6.474,4.124c0,1.399,0.675,2.35,1.851,2.35C368.651,474.229,369.851,473.604,371.45,467.756z"/>
</g>
<g display="none">
	<path display="inline" fill="#FFFFFF" d="M168.225,497.682c-0.048,0.2-0.216,0.3-0.528,0.3c-0.695,3.249-2.136,7.823-4.344,10.647
		c-0.384-0.275-1.08-0.7-1.512-0.9c2.208-2.699,3.577-7.073,4.177-10.497L168.225,497.682z M172.425,491.283l2.208,0.125
		c-0.024,0.2-0.168,0.325-0.504,0.351v19.944c0,1.301-0.336,1.824-1.152,2.124c-0.864,0.275-2.352,0.325-4.607,0.325
		c-0.12-0.5-0.408-1.3-0.696-1.773c1.08,0.023,2.112,0.05,2.88,0.05c1.68,0,1.872,0,1.872-0.7V491.283z M182.986,509.054
		c-0.6-2.999-2.567-7.748-4.705-11.372l1.536-0.625c2.16,3.574,4.249,8.223,4.873,11.247L182.986,509.054z"/>
	<path display="inline" fill="#FFFFFF" d="M193.761,498.807h-3.336c-0.288,2.099-1.176,4.299-3.432,5.897
		c-0.217-0.351-0.769-0.925-1.104-1.175c1.944-1.35,2.736-3.049,3.024-4.724h-2.664v-1.524h2.808v-3.823H186.8v-1.5h10.753v1.5
		h-2.256v3.823h2.616v1.524h-2.616v5.522h-1.536V498.807L193.761,498.807z M197.937,511.754h10.273v1.6h-22.082v-1.6h10.152v-3.499
		h-7.584v-1.551h7.584v-3.198l2.112,0.149c-0.023,0.175-0.144,0.3-0.456,0.351v2.698h7.682v1.551h-7.682V511.754z M190.544,493.459
		v3.823h3.216v-3.823H190.544z M201.465,492.308c-0.024,0.176-0.145,0.275-0.48,0.325v8.223h-1.512v-8.697L201.465,492.308z
		 M207.442,491.108c-0.023,0.175-0.144,0.3-0.456,0.351v11.172c0,1.8-0.983,1.898-4.271,1.898c-0.072-0.449-0.312-1.074-0.528-1.499
		c0.552,0.024,1.08,0.024,1.512,0.024c1.729,0,1.729-0.024,1.729-0.425v-11.646L207.442,491.108z"/>
	<path display="inline" fill="#FFFFFF" d="M218.913,501.28c-0.097,0.125-0.288,0.15-0.456,0.125c-0.385,0.7-1.057,1.726-1.656,2.5
		c0.624,0.8,1.2,1.574,1.44,1.874l-0.984,1.175c-0.432-0.773-1.44-2.273-2.28-3.448v10.621h-1.464v-9.598
		c-0.936,1.25-1.92,2.351-2.88,3.226c-0.145-0.399-0.576-1.125-0.864-1.399c2.4-2.024,4.896-5.549,6.266-9.098h-5.688v-1.524h3.072
		v-4.699l1.943,0.125c-0.023,0.175-0.144,0.3-0.456,0.325v4.249h1.873l0.288-0.075l1.009,0.625c-0.049,0.101-0.168,0.2-0.312,0.226
		c-0.624,1.875-1.488,3.725-2.52,5.424c0.264,0.324,0.575,0.699,0.888,1.124c0.552-0.851,1.2-1.949,1.56-2.698L218.913,501.28z
		 M229.714,505.479l1.056,0.649c-0.022,0.101-0.144,0.176-0.264,0.226c-0.888,1.8-2.186,3.224-3.77,4.374
		c1.704,0.925,3.722,1.574,5.904,1.924c-0.358,0.375-0.792,1.025-1.008,1.475c-2.354-0.475-4.513-1.299-6.337-2.474
		c-2.063,1.175-4.464,1.976-7.032,2.499c-0.168-0.425-0.576-1.125-0.864-1.449c2.353-0.399,4.608-1.05,6.553-2.023
		c-1.009-0.8-1.872-1.726-2.568-2.774c-0.84,0.726-1.752,1.424-2.809,2.049c-0.24-0.375-0.721-0.874-1.08-1.1
		c2.544-1.399,4.464-3.299,5.592-4.999h-2.856v-7.098c-0.384,0.55-0.815,1.1-1.271,1.6c-0.288-0.325-0.816-0.773-1.176-0.975
		c1.848-1.925,3.096-4.499,3.769-6.498l1.872,0.3c-0.023,0.175-0.168,0.274-0.456,0.3c-0.239,0.625-0.527,1.3-0.863,1.999h10.104
		v1.45h-10.85c-0.312,0.6-0.695,1.199-1.104,1.773h10.44v7.147h-5.473c-0.097,0.075-0.192,0.101-0.36,0.101
		c-0.336,0.5-0.743,1.051-1.199,1.601h5.761L229.714,505.479z M221.721,497.883v1.8h7.441v-1.8H221.721z M221.721,500.831v1.851
		h7.441v-1.851H221.721z M222.441,506.904l-0.023,0.024c0.72,1.125,1.729,2.125,2.929,2.95c1.248-0.801,2.304-1.775,3.072-2.976
		L222.441,506.904L222.441,506.904z"/>
	<path display="inline" fill="#FFFFFF" d="M240.44,505.43v1.125c0.984,0.725,3.602,2.849,4.226,3.424l-0.96,1.3
		c-0.602-0.7-2.112-2.125-3.266-3.148v6.022h-1.512v-6.698c-1.2,2.051-2.809,4.05-4.297,5.323c-0.191-0.425-0.576-1.023-0.912-1.374
		c1.729-1.225,3.625-3.648,4.776-5.974h-4.177v-1.476h4.608v-2.773l1.968,0.148c-0.022,0.15-0.144,0.275-0.456,0.325v2.3h4.152
		v1.476H240.44L240.44,505.43z M240.824,495.107h-2.399c-0.192,2.424-0.961,5.023-3.505,7.073c-0.24-0.325-0.769-0.825-1.128-1.025
		c2.279-1.799,2.977-3.998,3.191-6.048h-2.641v-1.5h2.736v-2.724l1.872,0.124c-0.023,0.176-0.145,0.301-0.456,0.324v2.274h3.673
		v5.049c0,0.476,0.048,0.525,0.288,0.525h0.575c0.337,0,0.407-0.275,0.433-2.899c0.288,0.274,0.84,0.476,1.225,0.601
		c-0.097,2.948-0.433,3.624-1.465,3.624h-0.982c-1.104,0-1.418-0.375-1.418-1.824L240.824,495.107L240.824,495.107z
		 M256.306,511.229v1.549h-9.049v1.375h-1.512v-13.896c-0.456,0.948-0.96,1.85-1.488,2.6c-0.264-0.275-0.816-0.726-1.152-0.975
		c1.776-2.476,3.24-6.725,4.104-10.974l1.896,0.5c-0.048,0.176-0.24,0.25-0.527,0.25c-0.288,1.375-0.673,2.749-1.08,4.1h3.265
		c0.504-1.374,1.056-3.249,1.344-4.6l1.896,0.575c-0.048,0.149-0.24,0.226-0.528,0.25c-0.264,1.074-0.744,2.549-1.2,3.773h3.77v1.55
		h-3.792v3.599h3.527v1.476h-3.527v3.648h3.527v1.476h-3.527v3.725L256.306,511.229L256.306,511.229z M250.737,500.905v-3.599
		h-3.479v3.599H250.737z M250.737,506.029v-3.648h-3.479v3.648H250.737z M247.257,507.505v3.725h3.479v-3.725H247.257z"/>
	<path display="inline" fill="#FFFFFF" d="M277.065,511.604c-2.111,0.399-4.92,0.574-7.368,0.574c-1.969,0-3.695-0.125-4.633-0.325
		c-2.903-0.675-4.151-2.574-4.151-4.773c0-1.874,1.008-3.823,2.447-5.322l1.394,0.749c-1.345,1.425-2.112,3.05-2.112,4.424
		c0,1.476,0.937,2.773,3,3.273c0.816,0.176,2.208,0.275,3.841,0.275c2.328,0,5.16-0.2,7.464-0.675L277.065,511.604z
		 M266.289,499.007c1.248-1.024,2.952-2.225,4.248-2.898v-0.024c-1.824,0.225-6.001,0.3-8.665,0.3c0-0.476,0-1.3-0.023-1.749h1.296
		c3.072,0,9.36-0.051,12.385-0.8l0.192,1.823c-0.792,0.125-1.368,0.25-2.521,0.75c-1.345,0.574-3.673,1.924-5.545,3.499
		L266.289,499.007z M277.042,502.556c-0.696-1.102-2.186-2.601-3.217-3.399l0.792-0.773c1.151,0.874,2.545,2.323,3.288,3.374
		L277.042,502.556z M279.562,500.181c-0.672-0.999-2.088-2.499-3.216-3.374l0.792-0.8c1.176,0.925,2.568,2.35,3.288,3.398
		L279.562,500.181z"/>
	<path display="inline" fill="#FFFFFF" d="M302.002,498.133c-0.072,0.273-0.336,0.448-0.696,0.448
		c-0.264,1.726-0.647,3.55-1.056,5.1c1.296,0.575,2.664,1.225,4.032,1.95l-0.77,1.674c-1.296-0.675-2.544-1.324-3.769-1.874
		c-1.151,3.599-2.809,6.224-5.353,7.973c-0.337-0.35-0.937-0.773-1.368-1.05c2.521-1.725,4.08-4.073,5.185-7.647
		c-2.424-1-4.632-1.699-6.408-1.85c-1.656,6.298-3.146,7.947-6.024,7.947s-3.433-2.398-3.433-3.924c0-3.874,3.864-5.675,8.161-5.698
		c0.504-1.999,0.96-4.449,1.296-7.048c-1.128,0.1-4.969,0.375-6.793,0.5c-0.096,0.175-0.287,0.3-0.504,0.35l-0.216-2.023
		c2.063-0.075,6.527-0.375,7.969-0.525c0.264-0.024,0.359-0.149,0.528-0.274l1.487,0.926c-0.12,0.199-0.312,0.3-0.601,0.398
		c-0.384,2.774-0.96,5.648-1.488,7.798c1.849,0.15,4.057,0.825,6.457,1.774c0.408-1.499,0.769-3.424,1.032-5.448L302.002,498.133z
		 M290.121,502.756c-3.457,0.05-6.218,1.475-6.218,4.124c0,1.399,0.648,2.35,1.776,2.35
		C287.433,509.229,288.585,508.604,290.121,502.756z"/>
	<path display="inline" fill="#FFFFFF" d="M314.842,502.506c0,1.425-1.104,2.574-2.473,2.574c-1.369,0-2.473-1.149-2.473-2.574
		s1.104-2.574,2.473-2.574C313.785,499.931,314.842,501.132,314.842,502.506z"/>
	<path display="inline" fill="#FFFFFF" d="M341.746,495.857h-13.081c-0.456,1.05-0.96,2.074-1.514,3.074h11.594v12.996
		c0,2.125-0.96,2.175-5.257,2.175c-0.071-0.475-0.312-1.2-0.552-1.675c0.84,0.024,1.632,0.024,2.279,0.024
		c1.729,0,1.921,0,1.921-0.55v-2.85h-10.153v5.049h-1.607V501.73c-1.225,1.699-2.641,3.225-4.296,4.474
		c-0.24-0.375-0.744-0.999-1.08-1.35c2.977-2.174,5.257-5.474,6.815-8.997h-6.312v-1.625h6.983c0.434-1.1,0.77-2.225,1.058-3.324
		l2.088,0.55c-0.048,0.176-0.24,0.275-0.528,0.275c-0.239,0.824-0.504,1.649-0.814,2.499h12.457V495.857z M337.138,503.256v-2.8
		h-10.153v2.8H337.138z M326.984,507.579h10.153v-2.85h-10.153V507.579z"/>
	<path display="inline" fill="#FFFFFF" d="M355.833,503.83h10.009v1.449h-21.458v-1.449h9.841v-2.023h-7.393v-1.351h7.393v-1.823
		h-6.553v-1.4h6.553v-1.924l2.089,0.148c-0.023,0.176-0.145,0.301-0.479,0.351v1.425h6.744v1.4h-6.744v1.823h7.705v1.351h-7.705
		L355.833,503.83L355.833,503.83z M346.664,495.032v2.824h-1.584v-4.349h9.121v-2.624l2.136,0.124
		c-0.023,0.176-0.168,0.301-0.479,0.351v2.149h9.336v4.349h-1.632v-2.824H346.664z M347.84,514.152v-7.248h14.737v7.148h-1.633
		v-0.775H349.4v0.875H347.84z M360.945,508.304H349.4v3.549h11.545V508.304z"/>
	<path display="inline" fill="#FFFFFF" d="M389.794,498.508h-17.139v3.424c0,3.647-0.552,8.822-3.672,12.321
		c-0.239-0.351-0.889-0.926-1.225-1.124c2.952-3.301,3.312-7.85,3.312-11.224v-3.124c-0.624,0.601-1.271,1.175-1.991,1.726
		c-0.288-0.399-0.816-0.976-1.226-1.199c3.337-2.425,5.642-5.774,6.793-8.448l2.112,0.325c-0.024,0.225-0.192,0.324-0.504,0.35
		c-0.168,0.351-0.36,0.726-0.576,1.101h6.48l0.287-0.101l1.297,0.851c-0.049,0.125-0.191,0.2-0.336,0.25
		c-0.479,0.975-1.2,2.225-1.921,3.324h8.306L389.794,498.508L389.794,498.508z M379.617,496.957c0.575-0.824,1.151-1.898,1.607-2.85
		h-6.409c-0.575,0.95-1.271,1.899-2.063,2.85H379.617z M376.929,510.979c0,1.1,0.384,1.35,2.353,1.35h7.152
		c1.752,0,2.018-0.601,2.208-3.823c0.384,0.3,1.08,0.574,1.513,0.675c-0.287,3.724-0.863,4.699-3.673,4.699h-7.2
		c-3.001,0-3.937-0.552-3.937-2.899v-9.923h9.913l0.359-0.025l0.889,0.125c0,0.175-0.024,0.352-0.072,0.525
		c-0.359,6.772-0.744,6.948-3.312,6.948c-0.601,0-1.393-0.025-2.16-0.075c-0.048-0.425-0.216-1.05-0.456-1.476
		c1.225,0.101,2.376,0.125,2.761,0.125c0.407,0,0.647-0.024,0.815-0.225c0.336-0.351,0.553-1.525,0.744-4.424h-7.896V510.979z"/>
	<path display="inline" fill="#FFFFFF" d="M399.057,491.933l1.08,0.675c-0.048,0.075-0.12,0.176-0.216,0.227
		c-0.673,1.925-1.682,4.599-2.616,6.747c2.424,2.449,2.735,4.05,2.735,5.374c0,3.3-2.209,3.3-3.505,3.3
		c-0.264,0-0.504,0-0.743-0.025c-0.023-0.425-0.191-1.1-0.433-1.499c0.408,0.05,0.816,0.075,1.152,0.075c1.08,0,2.04,0,2.04-2.101
		c0-1.375-0.792-2.948-2.761-4.898c0.841-1.999,1.655-4.448,2.257-6.273H394.4v20.62h-1.464V492.01h5.88L399.057,491.933z
		 M413.146,507.304h-4.944c1.368,3.175,3.386,4.475,6.337,5.499c-0.384,0.35-0.792,0.95-0.96,1.448
		c-3.023-1.198-5.137-2.748-6.576-6.072c-0.815,2.375-2.809,4.574-7.248,6.049c-0.168-0.35-0.602-1-0.89-1.25
		c4.465-1.475,6.192-3.499,6.841-5.674h-5.039v-6.448h5.376v-2.474h-3.889v-1.2c-0.721,0.524-1.487,1-2.257,1.425
		c-0.168-0.375-0.504-0.975-0.792-1.324c2.809-1.45,5.593-3.999,6.913-6.349l2.062,0.074c-0.048,0.149-0.168,0.274-0.358,0.301
		c1.584,2.224,4.439,4.498,6.96,5.673c-0.312,0.375-0.647,1-0.864,1.45c-0.695-0.375-1.438-0.825-2.16-1.325v1.275h-4.128v2.474
		h5.616V507.304z M402.129,505.904h3.84c0.049-0.475,0.071-0.949,0.071-1.425v-2.249h-3.911V505.904z M411.369,496.907
		c-1.775-1.3-3.479-2.898-4.585-4.448c-0.96,1.475-2.496,3.073-4.271,4.448H411.369z M411.656,502.23h-4.128v2.299
		c0,0.45-0.023,0.925-0.071,1.375h4.199V502.23L411.656,502.23z"/>
	<path display="inline" fill="#FFFFFF" d="M434.985,511.604c-2.112,0.399-4.92,0.574-7.368,0.574c-1.969,0-3.695-0.125-4.633-0.325
		c-2.904-0.675-4.152-2.574-4.152-4.773c0-1.874,1.009-3.823,2.448-5.322l1.394,0.749c-1.346,1.425-2.112,3.05-2.112,4.424
		c0,1.476,0.936,2.773,3,3.273c0.816,0.176,2.208,0.275,3.841,0.275c2.328,0,5.16-0.2,7.464-0.675L434.985,511.604z
		 M424.209,499.007c1.247-1.024,2.951-2.225,4.247-2.898v-0.024c-1.823,0.225-6.001,0.3-8.665,0.3c0-0.476,0-1.3-0.022-1.749h1.296
		c3.072,0,9.36-0.051,12.385-0.8l0.192,1.823c-0.792,0.125-1.368,0.25-2.521,0.75c-1.344,0.574-3.672,1.924-5.544,3.499
		L424.209,499.007z M434.962,502.556c-0.696-1.102-2.186-2.601-3.218-3.399l0.792-0.773c1.152,0.874,2.545,2.323,3.289,3.374
		L434.962,502.556z M437.481,500.181c-0.672-0.999-2.088-2.499-3.216-3.374l0.792-0.8c1.176,0.925,2.567,2.35,3.288,3.398
		L437.481,500.181z"/>
	<path display="inline" fill="#FFFFFF" d="M459.922,498.133c-0.072,0.273-0.336,0.448-0.696,0.448
		c-0.264,1.726-0.648,3.55-1.056,5.1c1.296,0.575,2.664,1.225,4.031,1.95l-0.769,1.674c-1.296-0.675-2.544-1.324-3.77-1.874
		c-1.15,3.599-2.808,6.224-5.352,7.973c-0.337-0.35-0.938-0.773-1.368-1.05c2.521-1.725,4.08-4.073,5.185-7.647
		c-2.425-1-4.633-1.699-6.408-1.85c-1.656,6.298-3.146,7.947-6.024,7.947s-3.433-2.398-3.433-3.924c0-3.874,3.864-5.675,8.161-5.698
		c0.504-1.999,0.96-4.449,1.296-7.048c-1.128,0.1-4.97,0.375-6.793,0.5c-0.097,0.175-0.287,0.3-0.504,0.35l-0.217-2.023
		c2.064-0.075,6.528-0.375,7.97-0.525c0.264-0.024,0.359-0.149,0.527-0.274l1.488,0.926c-0.12,0.199-0.312,0.3-0.601,0.398
		c-0.385,2.774-0.96,5.648-1.488,7.798c1.849,0.15,4.057,0.825,6.457,1.774c0.408-1.499,0.768-3.424,1.032-5.448L459.922,498.133z
		 M448.04,502.756c-3.456,0.05-6.217,1.475-6.217,4.124c0,1.399,0.648,2.35,1.776,2.35
		C445.353,509.229,446.505,508.604,448.04,502.756z"/>
</g>
</svg>
